<svg t="1606986013705" class="icon" viewBox="0 0 1024 1024" version="1.1" xmlns="http://www.w3.org/2000/svg" p-id="9587" width="200" height="200"><path d="M844.5 63.9h-665c-33 0-60 27-60 60v775.7c0 33 27 60 60 60h665.1c33 0 60-27 60-60V123.9c-0.1-33-27.1-60-60.1-60z m-108.9 644c0 18.7-15.3 34-34 34H321c-18.7 0-34-15.3-34-34s15.3-34 34-34h380.6c18.7 0 34 15.3 34 34z m0.7-196.8c0 18.7-15.3 34-34 34H321.7c-18.7 0-34-15.3-34-34s15.3-34 34-34h380.6c18.7 0 34 15.3 34 34z m0-196c0 18.7-15.3 34-34 34H321.7c-18.7 0-34-15.3-34-34s15.3-34 34-34h380.6c18.7 0 34 15.3 34 34z" p-id="9588" fill="#ffffff"></path></svg>