<svg t="1606356738669" class="icon" viewBox="0 0 1097 1024" version="1.1" xmlns="http://www.w3.org/2000/svg" p-id="15591" width="200" height="200"><path d="M1073.403196 310.659653c-24.318451-27.882731-175.572904-206.330874-233.251625-268.597402-17.810697-19.247647-30.965352-32.538773-58.294175-33.568989-27.197705-1.097113-466.435014 0-466.435014 0-15.073265 0-34.320913 3.429148-59.187921 32.540111C198.347021 108.849688 67.850754 258.323338 23.802995 310.727888c-29.862887 34.525618-33.563637 83.642842 0 134.265252 71.5853 83.301667 268.602754 309.356496 466.571485 537.130583 28.017864 32.471876 45.761663 33.631872 58.299527 33.631872 12.260909 0 29.65952-0.61144 58.36241-33.631872 195.987237-225.646757 384.09399-441.296404 466.366779-537.130583 27.742247-33.631872 32.946846-94.535036 0-134.333487z m-58.36241 100.701615c-65.694338 76.581179-263.188099 296.066709-419.580252 476.845549-22.881501 26.440429-36.721183 26.785618-46.514925 26.785618-9.930213 0-24.041497-0.961981-46.514925-26.785618C344.46511 705.780969 139.231349 478.08047 82.170757 411.361268c-15.893424-16.306849-15.553587-43.707921 0-67.132626C117.244932 302.302861 239.859377 163.241083 286.170935 109.263112c34.389148-40.143641 64.528989-33.637224 76.586531-33.637224h372.241154c44.663212 0 55.283803 9.867329 75.901504 33.637224 44.66455 51.306099 184.751192 212.633924 204.067075 234.96553 17.335727 24.521819 12.125777 47.743157 0.073587 67.132626zM548.742242 782.097236c-51.035834-68.50268-231.951144-288.259812-278.119542-351.080248l-3.565618-4.452674c-7.943367-10.615239-15.071928-15.61647-34.456045-15.61647h-2.467167V363.61276h102.482417c3.010372 0 3.695398 0 5.754493 3.355561L548.192347 636.799306 758.359104 367.653347c2.671872-4.107485 3.632515-4.107485 6.43952-4.107485h102.002095v47.401982h-2.330696c-19.18075 0-26.440429 5.001231-34.389148 15.690057-0.820159 1.023526-1.641656 2.25711-2.873902 3.627163-46.651395 63.363641-227.49847 283.329492-278.464731 351.832172z m0 0" p-id="15592"></path></svg>