<svg t="1606356848611" class="icon" viewBox="0 0 1024 1024" version="1.1" xmlns="http://www.w3.org/2000/svg" p-id="15908" width="200" height="200"><path d="M987.103097 511.266158h36.180127v-25.462618c0.477851 8.806106 0.682644 17.680477 0.682644 26.554848C1023.965868 794.495117 794.460985 1024 512.324256 1024A511.982934 511.982934 0 0 1 0.682644 512.290124C0.682644 230.08513 230.460585 0.511983 512.733842 0.716776h12.560648a36.521449 36.521449 0 0 1 0 73.042899h-12.970234a439.0083 439.0083 0 0 0-438.530449 438.598713c0 241.58768 197.011033 438.598713 438.598713 438.530449a439.0083 439.0083 0 0 0 438.462185-438.530449v-1.09223h72.428519v-0.887437a36.180127 36.180127 0 0 0-72.360255 0v0.887437h36.180128z m-97.754609-302.547782V305.858605a36.657978 36.657978 0 1 1-73.38422 0V208.718376H718.141395a36.657978 36.657978 0 1 1 0-73.38422h97.891137V36.69211a36.657978 36.657978 0 1 1 73.384221 0v98.642046h97.959401a36.657978 36.657978 0 0 1 0 73.38422h-97.959401zM659.775341 512.358388H548.845705v73.042899h110.929636a36.521449 36.521449 0 1 1 0 73.111163H548.845705v108.67691a36.521449 36.521449 0 1 1-73.042898 0V658.51245H367.535482a36.521449 36.521449 0 1 1 0-73.042899H475.802807V512.358388H367.535482a36.589714 36.589714 0 0 1 0-73.042899H475.802807v-6.826439L340.639312 296.984234A36.521449 36.521449 0 0 1 341.321956 245.30809a36.521449 36.521449 0 0 1 51.676144 0l122.875904 122.534582 116.049465-121.920203a36.316656 36.316656 0 1 1 52.358788 50.379121L548.845705 437.745408v1.501817h110.929636a36.521449 36.521449 0 1 1 0 73.042899z" p-id="15909"></path></svg>