<svg t="1606356676819" class="icon" viewBox="0 0 1024 1024" version="1.1" xmlns="http://www.w3.org/2000/svg" p-id="14116" width="200" height="200"><path d="M511.999469 1023.998795c-16.082805 0-31.563257-5.119994-44.574066-14.8781l-212.630338-157.635579A486.098252 486.098252 0 0 1 60.235294 463.028161V198.475061c0-33.310078 21.082328-62.463927 52.163703-72.703915L480.918093 4.999524a99.74953 99.74953 0 0 1 62.162751 0l368.519096 120.771622c31.081375 10.239988 52.163703 39.393836 52.163703 72.703915v264.5531a485.977781 485.977781 0 0 1-194.559771 388.51719l-212.630338 157.575344A73.246031 73.246031 0 0 1 511.999469 1023.998795z m-4.577877-59.452165a22.467738 22.467738 0 0 0 14.275747-4.698347l212.509868-157.63558a431.163728 431.163728 0 0 0 172.875091-344.726182V192.93342a22.588209 22.588209 0 0 0-15.781629-21.323269L522.540633 50.778293a47.887002 47.887002 0 0 0-30.479023 0.060235L123.662984 171.670386a22.588209 22.588209 0 0 0-15.902099 21.323269v264.553101a431.163728 431.163728 0 0 0 172.875091 344.726183l212.630338 157.695814a23.491737 23.491737 0 0 0 14.155278 4.638112zM333.462267 302.26035L432.488974 421.586328c10.541164 16.564686 3.071996 29.936906-16.082805 29.936906h-44.815006a35.418311 35.418311 0 0 0-35.237605 35.779722c0 19.817388 15.661158 35.839958 35.538781 35.839958h69.812624c19.576448 0 35.538782 16.14304 35.538782 35.538782v1.746821c0 19.636683-15.661158 35.538782-35.538782 35.538782H371.892339a35.960428 35.960428 0 0 0-35.538781 36.080899v-1.686587c0 19.937859 15.661158 36.141134 35.538781 36.141134h69.812624a35.538782 35.538782 0 0 1 35.538782 35.779723c0 19.817388 15.600923 35.839958 35.17737 35.839958a35.418311 35.418311 0 0 0 35.237606-35.779723c0-19.877624 15.600923-35.900193 35.538781-35.900193H652.949891c19.576448 0 35.538782-16.323746 35.538782-36.080899v1.686587c0-19.937859-15.661158-36.141134-35.538782-36.141134H583.197502a35.719487 35.719487 0 0 1-35.538781-35.538782v-1.686586c0-19.636683 15.600923-35.538782 35.538781-35.538782H652.949891a35.538782 35.538782 0 0 0 35.538782-35.839958 35.659252 35.659252 0 0 0-35.237606-35.779722h-44.815006c-19.395742 0-26.623969-13.49269-16.082805-29.936906l99.026707-119.325978c10.541164-16.504451 3.011761-29.876671-16.38398-29.87667h-21.503975c-19.576448 0-43.730772 13.974572-53.609349 30.719963l-69.270507 81.317552c-10.059282 16.986333-26.503498 16.745392-36.321839 0l-69.330742-81.317552c-10.059282-16.986333-34.273842-30.719964-53.609349-30.719963h-21.503974c-19.576448 0-26.86491 13.432455-16.383981 29.87667z" p-id="14117"></path></svg>