<svg t="1607150167896" class="icon" viewBox="0 0 1199 1024" version="1.1" xmlns="http://www.w3.org/2000/svg" p-id="6570" width="200" height="200"><path d="M1135.724202 311.49201V228.735882A148.292814 148.292814 0 0 0 1003.96548 78.215678H623.938374L608.260971 48.659918a90.20932 90.20932 0 0 0-80.186062-48.574249H122.604148A124.476868 124.476868 0 0 0 0.011996 126.104576v771.790848a124.476868 124.476868 0 0 0 122.592152 126.018907h954.094203a124.476868 124.476868 0 0 0 122.592152-126.018907V424.232243a153.347277 153.347277 0 0 0-63.65197-112.654564z m-131.758722-157.63072c26.214674 0 56.11311 39.921693 56.11311 74.874592v52.34368H731.367137l-67.335732-127.132603h339.934075z m119.936418 743.948465a48.745587 48.745587 0 0 1-46.946541 50.287626H122.604148a48.745587 48.745587 0 0 1-46.94654-50.287626V126.018907a48.831256 48.831256 0 0 1 46.94654-50.373295h405.470761a14.820714 14.820714 0 0 1 13.193006 8.566887l133.472099 252.294821a37.86564 37.86564 0 0 0 33.410859 20.132185h347.558604a86.354221 86.354221 0 0 1 67.50707 67.507069v473.663181z" fill="" p-id="6571"></path></svg>