<svg t="1606374567053" class="icon" viewBox="0 0 1024 1024" version="1.1" xmlns="http://www.w3.org/2000/svg" p-id="109291" width="200" height="200"><path d="M752.735642 431.06304C757.159322 140.57472 520.410522 8.97024 504.518042 0.4096V0l-0.45056 0.2048L503.657882 0v0.4096c-15.93344 8.56064-252.7232 140.16512-248.25856 430.65344-48.20992 31.45728-98.7136 87.36768-90.68544 184.07424 8.02816 96.6656 101.00736 160.768 136.6016 157.2864 35.59424-3.4816 25.23136-30.3104 25.23136-30.3104l12.20608-50.09408s52.46976 80.56832 69.30432 80.52736c15.11424-1.2288 86.99904-0.12288 95.60064 0h0.8192c8.6016-0.12288 80.4864-1.2288 95.60064 0 16.7936 0 69.30432-80.52736 69.30432-80.52736l12.16512 50.09408s-10.32192 26.8288 25.27232 30.3104c35.59424 3.4816 128.57344-60.6208 136.6016-157.2864 8.02816-96.6656-42.47552-152.61696-90.68544-184.07424z m-248.66816-4.25984c-6.7584-0.12288-94.78144-3.35872-102.89152-107.19232 2.94912-98.7136 95.96928-107.43808 102.89152-107.9296 6.9632 0.49152 99.9424 9.216 102.89152 107.9296-8.11008 103.8336-96.17408 107.06944-102.89152 107.19232z m-52.0192 500.5312c0 11.83744-9.4208 21.38112-21.01248 21.38112a21.21728 21.21728 0 0 1-21.05344-21.34016v-105.63584c0-11.79648 9.4208-21.38112 21.05344-21.38112 11.59168 0 21.01248 9.58464 21.01248 21.38112v105.63584z m77.33248 57.22112a21.504 21.504 0 0 1-21.34016 21.62688 21.504 21.504 0 0 1-21.34016-21.62688v-157.0816c0-11.96032 9.54368-21.66784 21.2992-21.66784 11.79648 0 21.38112 9.70752 21.38112 21.66784v157.0816z m71.14752-82.04288c0 11.79648-9.4208 21.34016-21.05344 21.34016a21.21728 21.21728 0 0 1-21.01248-21.34016v-75.3664c0-11.75552 9.4208-21.2992 21.01248-21.2992 11.63264 0 21.05344 9.54368 21.05344 21.2992v75.3664z" p-id="109292"></path></svg>