<svg t="1606370428769" class="icon" viewBox="0 0 1024 1024" version="1.1" xmlns="http://www.w3.org/2000/svg" p-id="86491" width="200" height="200"><path d="M853.333333 170.666667v682.666666H170.666667V170.666667h682.666666m34.133334-102.4H136.533333c-37.546667 0-68.266667 30.72-68.266666 68.266666v750.933334c0 37.546667 30.72 68.266667 68.266666 68.266666h750.933334c37.546667 0 68.266667-30.72 68.266666-68.266666V136.533333c0-37.546667-30.72-68.266667-68.266666-68.266666z" p-id="86492"></path><path d="M485.9904 537.7024H280.098133l66.798934 66.6624L228.693333 722.670933a51.131733 51.131733 0 0 0 0 72.430934 51.063467 51.063467 0 0 0 72.328534 0l118.272-118.306134 66.696533 66.6624v-205.755733z m309.213867-313.685333a51.131733 51.131733 0 0 0-72.430934 0l-118.203733 118.272-66.6624-66.6624v205.858133h205.892267l-66.696534-66.6624 118.306134-118.306133a51.438933 51.438933 0 0 0-0.2048-72.4992z" p-id="86493"></path></svg>