<svg t="1607150128114" class="icon" viewBox="0 0 1024 1024" version="1.1" xmlns="http://www.w3.org/2000/svg" p-id="5772" width="200" height="200"><path d="M627.263232 13.007763h-484.17784c-52.031052 0-93.222301 41.913903-93.222301 93.222301v810.817219c0 52.031052 41.913903 93.222301 93.222301 93.222301H880.914608c52.031052 0 93.222301-41.913903 93.222301-93.222301V352.654905l-346.873677-339.647142z m15.175724 127.187015l220.409315 214.628087H642.438956V140.194778z m215.350741 790.582921h-693.024701c-19.511644 0-35.410021-15.898377-35.410021-35.410021V128.632322c0-19.511644 15.898377-35.410021 35.410021-35.410021h396.736768v342.537755h331.697954v459.607622c0.722653 19.511644-14.45307 35.410021-35.410021 35.410021z" p-id="5773"></path></svg>