<svg t="1606369306611" class="icon" viewBox="0 0 1024 1024" version="1.1" xmlns="http://www.w3.org/2000/svg" p-id="69265" width="200" height="200"><path d="M186.4 160c-20 0-36 16-36 36v648c0 20 16 36 36 36h648c20 0 36-16 36-36v-648c0-20-16-36-36-36h-648z m0-72h648c60 0 108 48 108 108v648c0 60-48 108-108 108h-648c-60 0-108-48-108-108v-648c0-59.2 48.8-108 108-108z" p-id="69266"></path><path d="M360 719.2h56.8c20 0 36 16 36 36s-16 36-36 36h-144c-20 0-36-16-36-36v-144c0-20 16-36 36-36s36 16 36 36v56.8L432 545.6c14.4-14.4 36.8-14.4 51.2 0 14.4 14.4 14.4 36.8 0 51.2L360 719.2z m299.2-400h-56.8c-20 0-36-16-36-36s16-36 36-36h144c20 0 36 16 36 36v144c0 20-16 36-36 36s-36-16-36-36v-56.8L587.2 492.8c-14.4 14.4-36.8 14.4-51.2 0-14.4-14.4-14.4-36.8 0-51.2 0 0.8 123.2-122.4 123.2-122.4z" p-id="69267"></path></svg>