<svg t="1606987178701" class="icon" viewBox="0 0 1024 1024" version="1.1" xmlns="http://www.w3.org/2000/svg" p-id="11036" width="200" height="200"><path d="M853.333333 56.888889H170.666667a113.777778 113.777778 0 0 0-113.777778 113.777778v682.666666a113.777778 113.777778 0 0 0 113.777778 113.777778h682.666666a113.777778 113.777778 0 0 0 113.777778-113.777778V170.666667a113.777778 113.777778 0 0 0-113.777778-113.777778zM284.444444 739.555556a56.888889 56.888889 0 0 1-113.777777 0V455.111111a56.888889 56.888889 0 0 1 113.777777 0z m284.444445 0a56.888889 56.888889 0 0 1-113.777778 0V284.444444a56.888889 56.888889 0 0 1 113.777778 0z m284.444444 0a56.888889 56.888889 0 0 1-113.777777 0v-170.666667a56.888889 56.888889 0 0 1 113.777777 0z" fill="#ffffff" p-id="11037"></path></svg>