<svg t="1606986102770" class="icon" viewBox="0 0 1024 1024" version="1.1" xmlns="http://www.w3.org/2000/svg" p-id="12475" width="200" height="200"><path d="M871.265546 95.755948h-153.920546a72.851451 72.851451 0 0 0-70.316221-55.775072h-76.29004a64.109277 64.109277 0 0 0-118.660444 0h-77.543085a72.851451 72.851451 0 0 0-70.316221 55.775072H150.298443A70.957314 70.957314 0 0 0 79.982222 168.607399V951.148549a71.685828 71.685828 0 0 0 70.316221 72.851451h719.772339a73.958793 73.958793 0 0 0 73.871372-72.851451V168.461696a72.064656 72.064656 0 0 0-72.676608-72.705748zM512.57414 130.928628a58.281161 58.281161 0 1 1-58.281161 58.281161 58.281161 58.281161 0 0 1 58.252021-58.310301z m221.730678 602.190097a26.925896 26.925896 0 0 1-26.692772 26.692772H317.507094a26.925896 26.925896 0 0 1-26.692772-26.692772v-24.274103a26.925896 26.925896 0 0 1 26.692772-26.692772h390.075811a26.925896 26.925896 0 0 1 26.692772 26.692772z m0-246.004781a26.925896 26.925896 0 0 1-26.692772 26.692772H317.507094a26.925896 26.925896 0 0 1-26.692772-26.692772v-24.274103a26.925896 26.925896 0 0 1 26.692772-26.692772h390.075811a26.925896 26.925896 0 0 1 26.692772 26.692772z" p-id="12476" fill="#ffffff"></path></svg>