<svg t="1606361190809" class="icon" viewBox="0 0 1024 1024" version="1.1" xmlns="http://www.w3.org/2000/svg" p-id="63162" width="200" height="200"><path d="M494.035088 934.175439H152.701754c-11.976608 0-23.953216-11.976608-23.953216-23.953217V113.777778c0-11.976608 11.976608-23.953216 23.953216-23.953217h676.678363c11.976608 0 23.953216 11.976608 23.953216 23.953217v251.508772c0 23.953216 17.964912 47.906433 47.906433 47.906432s47.906433-17.964912 47.906433-47.906432V113.777778c0-65.871345-53.894737-113.777778-113.777778-113.777778H152.701754C92.818713 0 38.923977 53.894737 38.923977 113.777778v790.45614C38.923977 970.105263 92.818713 1018.011696 152.701754 1018.011696h341.333334c23.953216 0 47.906433-17.964912 47.906432-47.906433s-23.953216-35.929825-47.906432-35.929824z" p-id="63163"></path><path d="M733.567251 215.578947h-479.064327c-23.953216 0-47.906433 17.964912-47.906433 47.906433s17.964912 47.906433 47.906433 47.906433h479.064327c23.953216 0 47.906433-17.964912 47.906433-47.906433s-23.953216-47.906433-47.906433-47.906433zM775.48538 407.204678c0-23.953216-17.964912-47.906433-41.918129-47.906432h-479.064327c-23.953216 0-41.918129 23.953216-41.918129 47.906432s17.964912 47.906433 47.906433 47.906433h479.064328c17.964912-5.988304 35.929825-23.953216 35.929824-47.906433zM254.502924 503.017544c-23.953216 0-47.906433 17.964912-47.906433 47.906433s17.964912 47.906433 47.906433 47.906432h167.672515c23.953216 0 47.906433-17.964912 47.906432-47.906432s-17.964912-47.906433-47.906432-47.906433H254.502924zM937.169591 736.561404H631.766082l59.883041-59.883041c17.964912-17.964912 17.964912-47.906433 0-65.871345s-47.906433-17.964912-65.871345 0l-137.730994 137.730994c-5.988304 5.988304-5.988304 11.976608-11.976609 11.976608 0 5.988304-5.988304 11.976608-5.988304 17.964912s0 11.976608 5.988304 17.964912c0 5.988304 5.988304 11.976608 11.976609 11.976609l137.730994 137.730994c5.988304 5.988304 17.964912 11.976608 29.94152 11.976608s23.953216-5.988304 29.941521-11.976608c17.964912-17.964912 17.964912-47.906433 0-65.871345l-59.883041-59.883041H937.169591c23.953216 0 47.906433-17.964912 47.906432-47.906433s-17.964912-35.929825-47.906432-35.929824z" p-id="63164"></path></svg>