<svg t="1606361255715" class="icon" viewBox="0 0 1030 1024" version="1.1" xmlns="http://www.w3.org/2000/svg" p-id="64748" width="200" height="200"><path d="M514.048 997.376h-450.56c-26.624 0-49.152-22.528-49.152-49.152V75.776c0-26.624 22.528-49.152 49.152-49.152h690.176c26.624 0 49.152 22.528 49.152 49.152v401.408c0 10.24-10.24 20.48-20.48 20.48-12.288 0-20.48-8.192-20.48-20.48V75.776c0-4.096-4.096-8.192-8.192-8.192H63.488c-4.096 0-8.192 4.096-8.192 8.192v872.448c0 4.096 4.096 8.192 8.192 8.192h452.608c12.288 0 20.48 8.192 20.48 20.48-2.048 10.24-10.24 20.48-22.528 20.48z" p-id="64749"></path><path d="M669.696 237.568H167.936c-12.288 0-20.48-8.192-20.48-20.48 0-10.24 10.24-20.48 20.48-20.48h501.76c12.288 0 20.48 8.192 20.48 20.48s-8.192 20.48-20.48 20.48zM571.392 473.088H167.936c-12.288 0-20.48-8.192-20.48-20.48 0-10.24 10.24-20.48 20.48-20.48h403.456c12.288 0 20.48 8.192 20.48 20.48 0 10.24-8.192 20.48-20.48 20.48zM419.84 706.56H167.936c-12.288 0-20.48-8.192-20.48-20.48 0-10.24 10.24-20.48 20.48-20.48h251.904c12.288 0 20.48 8.192 20.48 20.48 2.048 12.288-8.192 20.48-20.48 20.48z" p-id="64750"></path><path d="M780.288 985.088c-4.096 0-6.144 0-10.24-2.048-10.24-6.144-237.568-131.072-239.616-264.192v-6.144-8.192c4.096-71.68 63.488-126.976 135.168-126.976 49.152 0 90.112 24.576 114.688 63.488 24.576-36.864 65.536-63.488 114.688-63.488 71.68 0 131.072 55.296 135.168 126.976v14.336c-4.096 131.072-231.424 258.048-239.616 262.144-4.096 2.048-6.144 4.096-10.24 4.096z m-114.688-366.592c-51.2 0-92.16 38.912-94.208 88.064v8.192c2.048 86.016 143.36 186.368 208.896 225.28C845.824 901.12 987.136 802.816 989.184 716.8v-6.144-4.096c-2.048-49.152-45.056-88.064-94.208-88.064-51.2 0-94.208 40.96-94.208 92.16 0 12.288-8.192 20.48-20.48 20.48s-20.48-8.192-20.48-20.48c0-51.2-43.008-92.16-94.208-92.16z" p-id="64751"></path></svg>