<svg t="1606361091652" class="icon" viewBox="0 0 1024 1024" version="1.1" xmlns="http://www.w3.org/2000/svg" p-id="60842" width="200" height="200"><path d="M873.198933 0c36.590933 0 66.286933 29.696 66.286934 66.286933V421.888a39.799467 39.799467 0 0 1-79.530667 0V106.0864a26.487467 26.487467 0 0 0-21.0944-25.941333l-5.393067-0.6144H106.0864a26.487467 26.487467 0 0 0-26.555733 26.4192v811.963733c0 14.677333 11.946667 26.555733 26.624 26.555733h366.045866a39.799467 39.799467 0 0 1 0 79.530667H66.218667a66.286933 66.286933 0 0 1-65.809067-58.5728L0 957.713067V66.218667C0 29.696 29.696 0 66.286933 0h806.912z m100.829867 546.133333l40.277333 41.301334-124.5184 127.7952H1024v58.436266h-142.199467v87.6544H1024v58.299734h-142.199467V1024h-56.9344v-104.448H682.666667v-58.231467h142.199466v-87.6544H682.666667v-58.436266h134.212266l-3.754666-3.8912-120.763734-123.904 40.277334-41.301334L853.333333 670.037333 974.0288 546.133333zM386.8672 623.479467a36.386133 36.386133 0 1 1 0 72.840533H241.186133a36.386133 36.386133 0 1 1 0-72.840533h145.681067zM716.8 414.173867c18.8416 0 34.133333 16.247467 34.133333 36.386133 0 20.138667-15.291733 36.386133-34.133333 36.386133h-477.866667c-18.8416 0-34.133333-16.247467-34.133333-36.386133 0-20.138667 15.291733-36.386133 34.133333-36.386133h477.866667zM703.146667 204.8c18.8416 0 34.133333 16.315733 34.133333 36.386133 0 20.138667-15.291733 36.4544-34.133333 36.4544h-477.866667c-18.8416 0-34.133333-16.384-34.133333-36.4544 0-20.0704 15.291733-36.386133 34.133333-36.386133h477.866667z" p-id="60843"></path></svg>