<svg t="1606360930693" class="icon" viewBox="0 0 1024 1024" version="1.1" xmlns="http://www.w3.org/2000/svg" p-id="54820" width="200" height="200"><path d="M151.983158 2.694737l-9.162105 0.269474C67.530105 7.383579 7.653053 66.290526 2.964211 138.994526l-0.269474 9.162106v727.578947l0.269474 8.946526c4.527158 73.350737 64.943158 131.772632 139.533473 136.353684l9.377684 0.269474h249.317053l5.335579-0.323368a36.971789 36.971789 0 0 0 32.606316-36.378948 37.133474 37.133474 0 0 0-32.660211-36.486736l-5.12-0.323369H151.767579l-7.383579-0.377263a72.757895 72.757895 0 0 1-65.697684-64.134737l-0.377263-7.329684V148.048842l0.377263-7.221895a72.757895 72.757895 0 0 1 65.751579-64.134736l7.437473-0.377264h663.444211l7.437474 0.377264a72.757895 72.757895 0 0 1 65.643789 64.134736l0.377263 7.329685v163.301052l0.377263 5.173895c2.479158 18.162526 18.432 31.797895 37.456843 31.797895a37.456842 37.456842 0 0 0 37.456842-31.797895l0.323368-4.958316V148.210526l-0.269474-8.946526C959.595789 65.967158 899.233684 7.545263 824.643368 2.964211L815.211789 2.694737H151.983158z m704.943158 431.157895c-17.515789 0-34.492632 6.197895-48.074105 17.785263l-5.605053 5.335579-323.045053 336.572631-5.335579 6.144a81.92 81.92 0 0 0 0 100.082527l5.22779 5.982315 75.452631 78.686316 5.928421 5.497263a73.835789 73.835789 0 0 0 95.932632-0.161684l5.658947-5.281684 137.593264-139.264 158.073263 164.702316 4.688842 4.203789a35.462737 35.462737 0 0 0 47.104-4.042105 39.882105 39.882105 0 0 0 3.880421-49.583158l-3.880421-4.796632-158.127158-168.474947 133.712842-139.317895 5.335579-6.144a81.92 81.92 0 0 0 0-100.082526l-5.22779-5.982316-75.452631-78.686316-5.928421-5.497263a73.835789 73.835789 0 0 0-47.912421-17.677473z m1.94021 77.231157l75.560421 82.458948-326.979368 336.680421-75.560421-82.458947 323.098947-336.680422h3.880421z m-465.92-49.960421H265.000421l-4.850526 0.377264c-16.922947 2.479158-29.911579 18.378105-29.911579 37.187368 0 18.863158 12.934737 34.492632 29.534316 37.187368l5.066105 0.377264h127.89221l4.850527-0.323369c16.976842-2.533053 29.965474-18.432 29.965473-37.187368 0-18.863158-12.934737-34.492632-29.534315-37.187369l-5.066106-0.431158zM273.839158 218.273684l-4.850526 0.323369c-16.922947 2.533053-29.911579 18.432-29.911579 37.187368 0 18.863158 12.934737 34.492632 29.534315 37.187368l5.066106 0.431158h314.529684l4.850526-0.377263c16.922947-2.479158 29.911579-18.378105 30.019369-37.187368 0-18.863158-12.934737-34.492632-29.480421-37.187369l-5.066106-0.377263H273.893053z" p-id="54821"></path></svg>