<svg t="1606360744456" class="icon" viewBox="0 0 1024 1024" version="1.1" xmlns="http://www.w3.org/2000/svg" p-id="52934" width="200" height="200"><path d="M880.198882 758.994281a19.249552 19.249552 0 0 0 0-28.259981 22.526072 22.526072 0 0 0-30.307805 2.047825L737.260718 845.822049l-113.859054-115.087749a22.116507 22.116507 0 0 0-29.488676 0 20.068682 20.068682 0 0 0 0 28.259981l114.678184 116.316444h2.047825a44.642579 44.642579 0 0 0 60.615611 0z" p-id="52935"></path><path d="M1010.850098 696.330845l-113.039923-135.15643a62.253871 62.253871 0 0 0-47.919098-22.526072h-228.127673a61.844306 61.844306 0 0 0-48.328663 22.526072L460.394817 696.330845a57.748657 57.748657 0 0 0 2.866955 77.817339l229.356367 232.632887 3.27652 2.866954A62.663436 62.663436 0 0 0 737.260718 1023.982798a63.892131 63.892131 0 0 0 43.413883-18.839987l223.622458-231.404192a59.386916 59.386916 0 0 0 4.09565-79.046033m-49.966923 53.243442l-208.87812 216.659854a20.068682 20.068682 0 0 1-13.515643 5.324344 21.297377 21.297377 0 0 1-13.106078-4.505214l-215.021594-218.298114a17.201728 17.201728 0 0 1 0-23.754767l106.486884-126.146002a20.068682 20.068682 0 0 1 15.153903-7.372168h212.97377a19.249552 19.249552 0 0 1 15.153902 7.372168l105.667755 126.146002a20.478247 20.478247 0 0 1-2.047824 24.573897" p-id="52936"></path><path d="M851.529336 41.026939a157.272937 157.272937 0 0 0-107.715579-40.956494H152.811547A148.262509 148.262509 0 0 0 0.043823 143.82774v696.2604A148.262509 148.262509 0 0 0 152.811547 983.026304h254.339828a35.222585 35.222585 0 0 0 30.307806-16.792162 30.307806 30.307806 0 0 0 0-33.174761 35.222585 35.222585 0 0 0-30.307806-16.382597H152.811547a84.779943 84.779943 0 0 1-58.158222-22.526072 75.359949 75.359949 0 0 1-24.164332-54.881702V143.418175a81.912988 81.912988 0 0 1 81.912989-76.998209h591.411775a84.370378 84.370378 0 0 1 57.748656 22.526071 74.131254 74.131254 0 0 1 24.164332 54.472138v199.867691a35.222585 35.222585 0 0 0 70.44517 0V143.418175A138.43295 138.43295 0 0 0 851.529336 41.026939zM462.852207 393.662354H209.741073a33.17476 33.17476 0 1 0 0 66.34952h253.520699a33.17476 33.17476 0 1 0 0-66.34952z m229.765932-204.782471H209.741073a35.222585 35.222585 0 0 0-30.307805 15.973033 29.898241 29.898241 0 0 0 0 32.765195 35.63215 35.63215 0 0 0 30.307805 16.792163h482.877066a33.17476 33.17476 0 1 0 0-66.349521z m-341.167596 409.564941H209.741073a33.17476 33.17476 0 1 0 0 66.349521h141.70947a36.45128 36.45128 0 0 0 30.717371-16.792163 32.35563 32.35563 0 0 0 0-33.17476 37.27041 37.27041 0 0 0-30.717371-16.382598z" p-id="52937"></path></svg>