<svg t="1606359350580" class="icon" viewBox="0 0 1024 1024" version="1.1" xmlns="http://www.w3.org/2000/svg" p-id="30619" width="200" height="200"><path d="M955.337 661.276l-53.23-42.516c0.898-8.242 1.737-16.472 1.737-25.216 0-8.778-0.839-17.009-1.737-25.251l53.23-42.504c4.768-3.847 6.062-10.83 3.031-16.472l-50.49-89.089c-3.02-5.677-9.909-7.729-15.4-5.677l-62.824 25.74c-13.104-10.282-27.232-18.769-42.633-25.239l-9.583-68.233c-0.792-6.179-6.003-10.819-12.333-10.819H664.137c-6.226 0-11.6 4.64-12.322 10.818l-9.641 68.233c-15.412 6.47-29.471 15.213-42.645 25.239l-62.754-25.74c-5.887-2.308-12.38 0-15.412 5.677l-50.537 89.089c-3.194 5.642-1.737 12.625 3.136 16.472l53.171 42.504c-1.002 8.242-1.737 16.729-1.737 25.251 0 8.487 0.734 16.974 1.737 25.216l-53.171 42.516c-4.873 3.847-6.004 10.784-3.136 16.473l50.537 89.077c3.031 5.689 9.862 7.741 15.412 5.689l62.754-25.752c13.173 10.282 27.233 18.804 42.645 25.251l9.641 68.222c0.723 6.19 6.097 10.83 12.322 10.83h100.968c6.33 0 11.541-4.64 12.334-10.83l9.583-68.222c15.4-6.447 29.529-15.213 42.633-25.251l62.824 25.752c5.771 2.332 12.322 0 15.4-5.689l50.49-89.077c3.03-5.653 1.736-12.625-3.032-16.472z m-240.711 22.36c-48.695 0-88.308-40.418-88.308-90.092 0-49.697 39.613-90.162 88.308-90.162 48.742 0 88.25 40.464 88.25 90.162 0 49.674-39.508 90.092-88.25 90.092z" p-id="30620"></path><path d="M210.32 928.013h310.753v-62.167H210.32v62.167zM769.691 120H210.32c-68.655 0-124.309 55.665-124.309 124.315v435.068c0 68.668 55.653 124.315 124.309 124.315h186.414V741.55H210.32c-34.328 0-62.173-27.839-62.173-62.167V244.315c0-34.328 27.845-62.167 62.173-62.167h559.371c34.328 0 62.136 27.839 62.136 62.167H894C894 175.665 838.341 120 769.691 120z" p-id="30621"></path></svg>