<svg t="1606359935180" class="icon" viewBox="0 0 1024 1024" version="1.1" xmlns="http://www.w3.org/2000/svg" p-id="39904" width="200" height="200"><path d="M503.3984 567.1936l171.6736-233.8304a38.4 38.4 0 0 0-10.752-55.5008 44.288 44.288 0 0 0-59.4944 12.1856L461.2096 493.7216l-148.48-203.008a47.4112 47.4112 0 0 0-62.4128-12.8 38.4512 38.4512 0 0 0-11.1104 56.2176l175.4112 233.0624 1.3312 1.9968a51.968 51.968 0 0 0 87.4496-1.9968z" p-id="39905"></path><path d="M862.5664 33.3824h-39.7824a160.4608 160.4608 0 0 0-96.1536-33.1776H156.2624A155.648 155.648 0 0 0 0.4096 156.0576v709.632c0 39.7824 16.5888 82.944 46.4384 109.4144 29.8496 29.8496 69.632 46.4384 112.7424 46.4384h573.696c66.304 0 122.6752-43.1104 145.92-99.4816 79.5648-6.656 142.5408-62.976 142.5408-135.936V169.3184C1018.4704 96.3584 948.7872 33.3824 862.5664 33.3824z m-36.5568 95.6416v760.832c0 39.7824-51.712 72.9088-91.5456 72.9088H144.2816c-48.9472 0-89.088-58.6752-89.088-98.4576V137.216c0-44.544 41.984-81.2032 84.0704-81.2032h595.2c39.8336 0 91.5456 33.1776 91.5456 72.96z m53.1456-30.8736c43.52-8.1408 86.9888 32.9728 86.9888 61.1328v632.6272c0 37.4784-54.528 66.048-83.6608 66.048l-3.328-759.808z" p-id="39906"></path><path d="M225.8944 674.5088m33.28 0l394.24 0q33.28 0 33.28 33.28l0 0q0 33.28-33.28 33.28l-394.24 0q-33.28 0-33.28-33.28l0 0q0-33.28 33.28-33.28Z" p-id="39907"></path></svg>