<svg t="1606357291691" class="icon" viewBox="0 0 1305 1024" version="1.1" xmlns="http://www.w3.org/2000/svg" p-id="24834" width="200" height="200"><path d="M1262.22003 157.137H925.23003a40.96 40.96 0 1 0 0 81.827h336.99a40.96 40.96 0 1 0 0-81.827z m-117.016 163.561h-219.88a40.96 40.96 0 1 0 0 81.92h219.973a40.96 40.96 0 0 0 0-81.92z m-108.73 166.912H925.23103a40.96 40.96 0 1 0 0 81.827h110.405a40.96 40.96 0 1 0 0-81.827h0.838z m-391.913 10.613a274.897 274.897 0 1 0-323.025 0A483.421 483.421 0 0 0 0.00003 953.903a40.96 40.96 0 0 0 81.827 0 401.687 401.687 0 0 1 802.444 0 40.96 40.96 0 0 0 81.826 0 483.421 483.421 0 0 0-321.536-455.68zM290.44403 277.41a193.07 193.07 0 1 1 386.048 0 193.07 193.07 0 0 1-386.048 0z" p-id="24835"></path></svg>