<svg t="1606359567075" class="icon" viewBox="0 0 1024 1024" version="1.1" xmlns="http://www.w3.org/2000/svg" p-id="34113" width="200" height="200"><path d="M895 64c17.673 0 32 14.327 32 32v832c0 17.673-14.327 32-32 32H129c-17.673 0-32-14.327-32-32V96c0-17.673 14.327-32 32-32h766z m-48 80H177v736h670V144zM721.962 668.667c22.092-0.021 40.017 17.87 40.038 39.962 0.02 21.87-17.515 39.658-39.301 40.032l-0.662 0.006-420 0.395c-22.09 0.02-40.016-17.871-40.037-39.963-0.02-21.87 17.515-39.658 39.3-40.031l0.662-0.006 420-0.395z m0-197.182c22.092-0.021 40.017 17.87 40.038 39.962 0.02 21.87-17.515 39.658-39.301 40.032l-0.662 0.006-420 0.395c-22.09 0.02-40.016-17.871-40.037-39.963-0.02-21.87 17.515-39.658 39.3-40.031l0.662-0.006 420-0.395zM512 274.5c22.091 0 40 17.909 40 40 0 21.87-17.552 39.641-39.339 39.995l-0.661 0.005H302c-22.091 0-40-17.909-40-40 0-21.87 17.552-39.641 39.339-39.995l0.661-0.005h210z" p-id="34114"></path></svg>