<?xml version="1.0" standalone="no"?><!DOCTYPE svg PUBLIC "-//W3C//DTD SVG 1.1//EN" "http://www.w3.org/Graphics/SVG/1.1/DTD/svg11.dtd"><svg class="icon" width="200px" height="200.00px" viewBox="0 0 1024 1024" version="1.1" xmlns="http://www.w3.org/2000/svg"><path fill="#333333" d="M224 995.2L89.6 992c-16 0-28.8-12.8-32-28.8L32 844.8c-3.2-12.8 0-22.4 9.6-32l348.8-345.6c-16-38.4-25.6-83.2-25.6-124.8 0-172.8 140.8-313.6 313.6-313.6S992 169.6 992 342.4s-140.8 313.6-313.6 313.6c-38.4 0-80-6.4-115.2-22.4l-44.8 41.6-3.2 105.6c0 16-12.8 32-28.8 32l-96 16-12.8 76.8c-3.2 16-16 28.8-35.2 28.8H262.4l-3.2 28.8c-3.2 19.2-16 32-35.2 32z m-105.6-73.6l76.8 3.2 6.4-28.8c3.2-16 16-28.8 35.2-28.8h76.8l9.6-73.6c3.2-16 12.8-25.6 28.8-28.8l92.8-16 3.2-89.6c0-9.6 3.2-16 9.6-22.4l70.4-70.4c9.6-9.6 25.6-12.8 38.4-6.4 32 16 70.4 25.6 108.8 25.6 134.4 0 243.2-108.8 243.2-243.2s-108.8-243.2-243.2-243.2-243.2 108.8-243.2 243.2c0 41.6 9.6 80 28.8 115.2 6.4 12.8 6.4 32-6.4 41.6L105.6 848l12.8 73.6z"  /><path fill="#333333" d="M739.2 435.2c-22.4 0-41.6-6.4-57.6-22.4L608 339.2c-35.2-35.2-28.8-92.8 12.8-134.4 38.4-38.4 102.4-44.8 134.4-12.8L832 265.6c16 16 25.6 41.6 22.4 70.4-3.2 22.4-16 48-35.2 64-22.4 22.4-51.2 35.2-80 35.2z m-38.4-198.4c-6.4 0-19.2 3.2-28.8 16-16 16-16 32-12.8 38.4l73.6 73.6c3.2 3.2 6.4 3.2 6.4 3.2 6.4 0 19.2-3.2 28.8-16 6.4-6.4 12.8-16 12.8-25.6 0-6.4 0-9.6-3.2-9.6L704 243.2c3.2-6.4-3.2-6.4-3.2-6.4z"  /></svg>