<svg t="1606357374094" class="icon" viewBox="0 0 1030 1024" version="1.1" xmlns="http://www.w3.org/2000/svg" p-id="26832" width="200" height="200"><path d="M795.957276 252.221343h195.876312c21.340641 0 38.695357-17.530097 38.695357-39.070034 0-21.571824-17.362688-39.117865-38.695357-39.117865H795.941332c-21.324697 0-38.671441 17.546041-38.671441 39.117865 0 21.531965 17.346744 39.070034 38.687385 39.070034z m195.876312 107.635911H795.957276c-21.340641 0-38.687385 17.522125-38.687385 39.078006 0 21.571824 17.346744 39.109893 38.687385 39.109893h195.876312c21.340641 0 38.695357-17.538069 38.695357-39.109893 0-21.555881-17.354716-39.078006-38.695357-39.078006z m0.015943 185.863669H795.941332c-21.308753 0-38.647526 17.546041-38.647526 39.101921 0 21.539937 17.338772 39.062062 38.647526 39.062062h195.908199c21.340641 0 38.687385-17.522125 38.687386-39.062062-0.007972-21.555881-17.346744-39.101921-38.687386-39.101921z m-123.23682 251.758976c-2.487217-18.861396-9.924953-45.973656-31.393143-68.135397-15.082739-15.840065-32.230187-25.557749-45.431569-32.214243-16.103136-7.971849-32.772273-12.762931-49.824059-17.338773-6.712297-1.777722-13.328932-3.419923-19.515088-4.966462-9.558247-2.391555-17.793168-4.456264-24.377915-6.401395l-3.818516-1.147946c-26.33899-7.740666-49.090649-14.452963-68.597764-24.537353-11.519322-5.978887-19.897736-13.249214-25.629496-22.257403-5.444773-8.729175-8.019681-18.120014-8.083455-29.607449 0-4.073615 0.350761-8.282752 1.044312-12.507832 1.03634-6.369508 2.590851-11.463519 4.687448-15.234204 1.785694-3.116993 3.388036-5.197646 7.214523-7.939962 6.815931-4.799053 11.686731-9.071965 15.624825-12.491888 2.311836-2.016878 4.22508-3.667051 5.652041-4.735278a81.950612 81.950612 0 0 0 25.908511-34.557968c4.22508-10.498926 8.139258-20.894217 11.965746-31.026438l4.894715-12.930339 0.685579-1.801638 1.41899-1.339271c3.372092-3.156852 6.616635-6.799988 9.821318-11.056955 9.000218-12.292592 14.91533-27.279669 17.530097-44.57061l0.8211-5.197646c1.80961-11.447576 3.858375-24.425747 3.882291-39.404852 0-6.026718-0.366705-11.925887-1.092143-17.346744-0.8211-5.460717-1.642201-9.948868-2.287921-13.512285-0.940678-5.285336-1.530595-8.482048-1.482764-10.467038-1.961075-38.416342-6.226014-89.157164-22.042164-141.014044-11.519322-38.065581-29.400181-70.925544-53.100489-97.663127-5.755675-6.449226-12.292592-13.281101-21.173232-19.562919-10.068446-7.126833-22.034192-11.901971-33.744838-13.504312a168.524896 168.524896 0 0 0-19.706412-1.666117l-3.467754-0.095662-2.423443-2.495189c-6.042662-6.281817-15.712515-15.425529-29.838632-22.161741-22.361038-10.682278-47.93473-16.103136-78.203843-16.54956L430.615389 0c-20.033258 0-38.631582 2.75826-52.646093 5.181702C310.288294 16.453897 252.707626 57.198019 215.797963 119.936474c-17.227167 28.913898-23.748139 58.154641-29.519758 83.943575l-1.403045 6.281817c-6.600691 30.069816-9.749572 61.837636-10.188024 103.036153l-0.079718 1.108088-0.151466 0.757325-0.263071 1.315355c-0.294958 1.562482-0.773269 3.483698-1.355214 5.803507a160.553047 160.553047 0 0 0-3.762713 18.383085c-0.558029 4.272911-0.8211 8.474076-0.8211 12.826705 0.047831 15.927755 3.499642 29.806745 6.863762 41.190546l1.482764 4.854856c4.65556 15.465388 10.47501 34.725376 24.122816 53.355588l0.908791 1.251581 0.414536 1.482764c5.444773 19.586834 13.416623 37.228537 19.78613 50.485722 3.906206 8.306667 11.056955 20.328216 23.10242 30.484352 8.434217 7.174664 16.924236 14.947218 25.892567 23.182138l0.829072 0.77327c2.32778 2.311836 3.220627 3.962009 4.057672 6.154267 2.367639 5.795535 2.63071 15.018964 2.973499 35.347181v0.845016c-0.21524 6.12238-1.690032 10.164108-5.946999 16.135023-8.426245 11.375829-21.842867 21.428331-44.722075 33.545542-11.662816 6.401395-26.833245 10.482982-46.053374 15.648741-3.898234 1.052284-7.947934 2.128484-12.077352 3.268458-5.380998 1.530595-11.599041 3.164824-18.335254 4.918631-9.590135 2.519104-20.479681 5.357083-31.393143 8.601625-20.989879 6.329648-38.384455 12.627409-54.965902 22.663968-15.871952 9.733628-28.746489 21.396444-38.32068 34.677545-10.506898 14.460935-17.386604 31.823623-19.897736 50.21468a1006.174945 1006.174945 0 0 0-5.628125 47.998505A329.604086 329.604086 0 0 0 0 870.047644c-0.015944 23.182138 2.662598 45.559119 7.955906 66.461309 3.316289 12.89048 8.370442 22.767602 15.975586 31.193846 8.035624 9.071965 20.447794 15.975586 33.226668 18.438888l0.390621 0.079719 0.366705 0.111606c0.8211 0.231184 1.961075 0.534114 3.380064 0.876903 40.712235 8.832809 93.948245 16.318376 162.777193 22.903123 33.689036 3.332233 68.92461 6.210071 104.781989 8.553795 28.395728 1.929188 56.815371 3.316289 77.574066 4.336686l17.936661 0.884875 0.892848 0.055803h1.283467c69.793542-0.892847 125.030486-3.762713 179.063682-9.319092l15.449444-1.602342c43.550213-4.488151 97.742846-10.068446 141.588017-18.335253 19.78613-3.858375 42.210943-8.218977 65.664124-18.080155 15.202317-5.954972 29.065363-20.105004 34.557967-35.458786 8.155202-21.07757 11.949802-43.845172 11.949802-71.595179 0-4.360602-0.08769-8.545823-0.223212-12.515804-0.701523-20.384019-3.124965-39.006259-5.978887-59.557687z m-64.811135 115.631676l-1.251581 3.818516-3.722853 1.434933c-14.540653 5.612182-31.839567 9.263289-48.341295 12.380282-40.712235 7.764581-96.371687 13.480397-141.109706 18.080154l-10.443123 1.084172c-52.406938 5.380998-103.777536 8.067512-172.327469 8.944415l-16.924236-0.829073c-20.599259-1.020397-48.811634-2.391555-76.505839-4.256967a3278.136082 3278.136082 0 0 1-102.852801-8.386386c-44.227821-4.201165-106.766979-11.320026-153.529848-21.396444l-5.229533-1.132002-1.211721-5.189674c-3.547473-14.963161-5.277364-30.524211-5.293308-47.599913 0-7.493538 0.374677-15.529163 1.108087-23.851773 1.147946-12.850621 2.766232-26.633949 5.261421-44.865569 1.283468-8.386386 3.746769-14.668203 8.250864-21.021767 4.472208-6.289789 10.857659-11.925887 19.435369-17.195279 7.971849-5.046181 22.408869-10.8178 39.556316-15.824121 9.303148-2.782175 19.132439-5.357083 28.634884-7.836328 6.89565-1.80961 13.727525-3.595304 20.224581-5.412886 4.543954-1.339271 9.406782-2.622738 14.52471-3.962009 17.011927-4.480179 36.303802-9.550276 56.440694-20.081089 22.966898-12.404198 46.994052-26.618005 66.222153-51.880796 12.404198-16.286488 19.172298-36.008844 19.044748-55.611621 0-0.86096-0.007972-1.801638-0.023915-2.54302a200.810887 200.810887 0 0 1-0.231184-9.622022c-0.111606-11.718619-0.247127-26.299131-5.875253-43.829228a81.7274 81.7274 0 0 0-22.034192-34.079656l-1.793666-1.63423a1052.1486 1052.1486 0 0 0-26.849189-23.995266c-2.351696-2.128484-4.081587-4.153334-6.433282-8.864697-8.513935-17.721421-13.695637-31.185875-16.964096-44.323483-0.21524-0.86096-0.597889-2.399527-1.46682-4.838912-1.139974-2.941612-2.710429-6.975368-6.792016-11.734562-7.445707-8.346526-12.332451-21.89867-17.809111-40.943419-2.790147-9.271261-4.193193-16.900321-4.177249-22.687883 0-1.578426 0.103634-3.053218 0.263071-4.241024 0.199296-2.160371 0.876903-4.950518 2.000934-9.590135 0.653692-2.678541 1.434933-5.939028 2.224146-9.406782l0.382649-1.992963c0.629776-3.132937 1.50668-7.421792 1.570454-13.695637 0.326846-36.20814 3.085106-64.91477 8.649457-90.265251 5.994831-27.742036 11.870084-52.231557 23.214025-70.845826 29.942266-48.684084 66.174322-74.608539 117.513032-84.063152 16.358235-2.837978 29.87052-4.209136 41.302152-4.209136h0.845016c0.709495 0 1.434933 0.015944 2.000934 0.031887 20.894217 0.279015 37.754679 3.627191 51.187245 10.108305 4.256968 1.817582 9.542304 6.393423 15.760346 13.631863a51.442344 51.442344 0 0 0 17.346745 13.137608c8.434217 3.914178 16.820602 4.496123 21.420359 4.496123l2.726373-0.023916a39.141781 39.141781 0 0 1 3.132936-0.095662c4.336686 0 9.135739 0.350761 14.43702 1.108087 2.016878 0.294958 3.427895 1.132003 5.197645 2.303865 2.574907 1.769751 6.090493 5.117927 9.916981 9.446641 17.569956 19.897736 30.508268 43.940834 39.52443 73.468564 10.746053 35.179771 16.701025 73.811354 19.291875 125.150064 0.558029 9.374895 1.992962 16.780743 3.037275 22.209573 0.581945 3.005387 1.044312 5.492604 1.243608 7.310185 0.326846 2.558964 0.494255 5.476661 0.510199 8.649457 0.063775 9.550276-1.8973 21.803008-3.946066 34.749292-1.0762 6.911593-2.869866 11.965746-5.660013 15.935727l-0.334818 0.494254-0.422508 0.43048c-0.239155 0.263071-0.669635 0.693551-1.291439 1.299412-1.219693 1.187806-3.356149 3.268458-5.827422 5.90714a29.09725 29.09725 0 0 1-1.50668 1.745835c-1.992962 2.232118-5.317224 5.978887-8.513935 13.464454-2.638682 6.815931-5.149815 13.480397-7.621088 20.017314-3.818516 10.116277-7.50151 19.897736-11.42366 29.607448-1.235637 2.822035-2.319808 4.496123-5.412886 7.047115a359.530408 359.530408 0 0 0-10.443123 8.761063c-3.459783 2.957556-5.723788 4.918631-7.509482 6.042661a87.562794 87.562794 0 0 0-27.837698 30.898889c-5.540435 10.25977-9.303148 21.826924-11.519322 35.379067a141.500327 141.500327 0 0 0-1.913244 23.094448c-0.063775 23.397378 6.226014 45.670725 18.215676 64.460374 11.774422 18.630212 29.35235 34.302868 50.860399 45.296049 25.270763 12.93034 50.844456 20.463737 73.396817 27.11226l10.227883 3.037274c8.960359 2.646654 18.62224 5.030237 27.965248 7.358017 6.018746 1.498708 11.997633 2.981472 17.785196 4.520039 16.302432 4.233052 30.221281 8.944415 37.148818 12.539719 12.388254 6.194127 21.484134 12.475944 27.773924 19.172298 7.764581 8.195061 11.790365 17.450378 13.942764 32.126553 2.295893 16.414038 4.799053 35.371096 5.396942 52.71784 0.111606 3.539501 0.183353 7.015227 0.183353 10.315573 0.023916 17.394575-1.873385 31.225734-5.923084 43.53427z m-343.993274-218.269237c-3.148881-2.606795-9.7416-1.147946-14.82764-1.339271-2.790147-0.175381-5.683929-0.055803-8.553794-0.055803-6.401395 0-12.818734-0.119578-19.244045 0.135522-1.570454 0-3.818516 0.494255-4.711363 1.498707-5.325195 6.975368-10.642419 13.934793-15.305951 21.436304-1.458848 2.343724-2.056737 6.656494-0.892847 9.008189 6.584748 13.496341 13.910877 26.522343 20.814499 39.91505 1.0762 1.984991 1.984991 4.703391 1.514651 6.815932-5.636098 27.614486-12.420141 54.965902-17.203251 82.691993-5.859309 34.135459-6.233986 29.535702 10.594588 52.917137a2.702457 2.702457 0 0 0 0.294959 0.366705c5.636098 5.149815 11.03304 10.650391 16.956123 15.4335 4.416405 3.563417 9.502444 3.148881 14.413104 0.366705 9.693769-5.468689 17.729393-12.770903 24.338056-21.46819 5.380998-7.11089 10.578644-14.48485 8.474076-24.545324-6.839847-32.014947-13.328932-64.213247-20.336188-96.228195-1.530595-6.839847-3.938094-13.281101 3.563417-18.167844 0.613832-0.438452 0.972566-1.283468 1.331299-1.93716 5.699872-10.235855 11.567153-20.336188 16.756827-30.755395 1.46682-3.029303 1.825554-7.397876 0.972566-10.642419-2.965528-10.793884-10.769969-18.725874-18.949086-25.446143z" p-id="26833"></path></svg>