<svg t="1606357184487" class="icon" viewBox="0 0 1024 1024" version="1.1" xmlns="http://www.w3.org/2000/svg" p-id="22610" width="200" height="200"><path d="M432.609724 458.848883c-126.082523 0-228.751643-102.66912-228.751643-228.751643S306.527201 1.345598 432.609724 1.345598s228.751643 102.66912 228.751643 228.751642-102.66912 228.751643-228.751643 228.751643z m0-403.679369c-96.479369 0-174.927727 78.448357-174.927727 174.927726s78.448357 174.927727 174.927727 174.927727 174.927727-78.448357 174.927727-174.927727S529.089093 55.169514 432.609724 55.169514zM779.773982 1024c-133.617871 0-242.207622-108.58975-242.207622-242.207622s108.58975-242.207622 242.207622-242.207621 242.207622 108.58975 242.207621 242.207621-108.58975 242.207622-242.207621 242.207622z m0-430.591327c-103.880158 0-188.383706 84.503548-188.383706 188.383705s84.503548 188.383706 188.383706 188.383706 188.383706-84.503548 188.383705-188.383706-84.503548-188.383706-188.383705-188.383705z" p-id="22611"></path><path d="M620.99343 963.178975H100.247043c-54.900394 0-99.574244-44.67385-99.574244-99.574244V715.319842C0.672799 588.69908 103.611038 485.760841 230.2318 485.760841h47.903285c22.471485 0 43.597372 8.611827 59.744547 24.220762l91.500657 85.849146c3.094875 1.749277 7.131669 1.345598 9.822865-1.211038l0.13456-0.13456 90.020499-88.674901c16.012615-15.878055 37.138502-24.624442 59.744547-24.624442h109.397109c99.574244 0 125.813403 55.842313 125.813403 85.445467h-53.823916c0-0.13456-0.26912-7.535348-9.688305-15.474376-8.611827-7.400788-26.508279-16.147175-62.301182-16.147175h-109.397109c-8.208147 0-15.878055 3.229435-21.664127 9.015506l-0.134559 0.13456-90.289619 88.540341c-21.664126 21.529566-56.380552 23.951643-80.870434 5.651512l-1.211038-0.941919-94.595532-88.809461c-5.920631-5.920631-13.859658-9.150066-22.336925-9.150066h-47.903286C133.348752 539.584757 54.496715 618.436794 54.496715 715.319842v148.419448c0 25.162681 20.453088 45.750329 45.750328 45.750329h520.746387v53.689356z" p-id="22612"></path><path d="M701.729304 919.043364c-3.498555 0-6.997109-0.672799-10.226544-2.018397-10.091984-4.171353-16.550854-13.994218-16.550855-24.893561V726.622865h-13.455979c-14.801577 0-26.911958-12.110381-26.911958-26.911958s12.110381-26.911958 26.911958-26.911958h40.367937c14.801577 0 26.911958 12.110381 26.911958 26.911958v127.428121L871.274639 684.64021c5.113272-5.113272 11.841261-7.939028 18.97293-7.939027h20.183968c14.801577 0 26.911958 12.110381 26.911958 26.911958s-12.110381 26.911958-26.911958 26.911958h-9.015505L720.702234 911.104336c-5.113272 5.247832-11.975821 7.939028-18.97293 7.939028z" p-id="22613"></path></svg>