<svg t="1606986427404" class="icon" viewBox="0 0 1194 1024" version="1.1" xmlns="http://www.w3.org/2000/svg" p-id="1855" width="200" height="200"><path d="M1131.692373 0H62.977707A63.488 63.488 0 0 0 0.001707 64V768c0 35.413333 28.16 64 62.976 64h311.125333l-69.376 146.090667a32 32 0 0 0 28.16 45.909333h528.64a30.890667 30.890667 0 0 0 26.453333-15.018667 32.170667 32.170667 0 0 0 1.706667-30.890666l-69.12-146.346667h311.125333a63.488 63.488 0 0 0 62.976-64V63.744A63.402667 63.402667 0 0 0 1131.692373 0zM644.524373 580.608h-408.746666a47.786667 47.786667 0 0 1-47.189334-48.128 47.786667 47.786667 0 0 1 47.274667-48.042667h408.746667a47.786667 47.786667 0 0 1 47.189333 48.042667 47.786667 47.786667 0 0 1-47.274667 48.128z m314.282667-282.112H235.86304a47.786667 47.786667 0 0 1-47.274667-48.042667 47.786667 47.786667 0 0 1 47.274667-48.042666h722.944a47.786667 47.786667 0 0 1 47.274667 48.042666 47.786667 47.786667 0 0 1-47.274667 48.042667z" p-id="1856" fill="#ffffff"></path></svg>