<svg t="1606359720469" class="icon" viewBox="0 0 1024 1024" version="1.1" xmlns="http://www.w3.org/2000/svg" p-id="35118" width="200" height="200"><path d="M762.112 988.288c-127.616 0-231.552-103.808-231.552-231.552 0-127.616 103.808-231.552 231.552-231.552 127.616 0 231.552 103.808 231.552 231.552 0 127.616-103.936 231.552-231.552 231.552z m0-411.904c-99.456 0-180.352 80.896-180.352 180.352s80.896 180.352 180.352 180.352 180.352-80.896 180.352-180.352-80.896-180.352-180.352-180.352z" p-id="35119"></path><path d="M466.56 951.68H71.296c-22.528 0-40.96-18.432-40.96-40.96V76.672c0-22.528 18.432-40.96 40.96-40.96h685.568c22.528 0 40.96 18.432 40.96 40.96v352.896c0 14.08-11.52 25.6-25.6 25.6s-25.6-11.52-25.6-25.6V86.912H81.536v813.568h384.896c14.08 0 25.6 11.52 25.6 25.6s-11.392 25.6-25.472 25.6z" p-id="35120"></path><path d="M197.12 642.816h187.008v51.2H197.12zM197.12 437.248h307.84v51.2H197.12zM197.12 231.552h441.984v51.2H197.12z" p-id="35121"></path><path d="M861.824 791.936h-99.712c-10.624 0-19.2-8.576-19.2-19.2V633.984c0-10.624 8.576-19.2 19.2-19.2s19.2 8.576 19.2 19.2v119.552h80.512c10.624 0 19.2 8.576 19.2 19.2s-8.576 19.2-19.2 19.2z" p-id="35122"></path></svg>