<svg t="1606359763292" class="icon" viewBox="0 0 1024 1024" version="1.1" xmlns="http://www.w3.org/2000/svg" p-id="35901" width="200" height="200"><path d="M984 312c-25.6-60.8-62.4-115.2-110.4-163.2-46.4-46.4-102.4-83.2-163.2-110.4C648 12.8 580.8 0 512 0c-68.8 0-136 12.8-200 40-60.8 25.6-115.2 62.4-163.2 110.4-46.4 46.4-83.2 102.4-110.4 163.2C12.8 376 0 443.2 0 512c0 68.8 12.8 136 40 200 25.6 60.8 62.4 115.2 110.4 163.2 46.4 46.4 102.4 83.2 163.2 110.4C376 1011.2 443.2 1024 512 1024c68.8 0 136-12.8 200-40 60.8-25.6 115.2-62.4 163.2-110.4 46.4-46.4 83.2-102.4 110.4-163.2C1011.2 648 1024 580.8 1024 512c0-68.8-12.8-136-40-200m4.8 182.4H769.6c0-35.2-4.8-70.4-11.2-105.6-8-44.8-22.4-89.6-41.6-134.4 48-17.6 96-40 142.4-68.8 76.8 81.6 124.8 190.4 129.6 308.8zM680 755.2c-49.6-14.4-100.8-22.4-150.4-24V529.6h204.8c-3.2 56-14.4 113.6-33.6 171.2-6.4 19.2-12.8 36.8-20.8 54.4zM340.8 265.6c38.4 11.2 75.2 17.6 113.6 22.4 12.8 1.6 25.6 1.6 40 3.2V496H289.6c1.6-57.6 12.8-115.2 32-174.4 4.8-20.8 11.2-38.4 19.2-56M529.6 35.2h1.6c59.2 64 104 131.2 137.6 198.4-48 14.4-94.4 20.8-139.2 22.4V35.2z m-35.2 0v219.2c-49.6-1.6-96-9.6-139.2-22.4 24-51.2 52.8-94.4 73.6-124.8 27.2-36.8 49.6-62.4 59.2-73.6 3.2 1.6 4.8 1.6 6.4 1.6m0 494.4v203.2c-12.8 0-25.6 1.6-40 3.2-38.4 3.2-75.2 11.2-112 20.8-33.6-75.2-51.2-150.4-52.8-227.2h204.8z m0 238.4v217.6c-57.6-64-104-129.6-137.6-195.2 43.2-14.4 89.6-20.8 137.6-22.4m35.2 0c43.2 1.6 89.6 8 136 20.8-25.6 51.2-52.8 94.4-75.2 124.8-27.2 35.2-49.6 60.8-60.8 72V768z m0-273.6V289.6c51.2-1.6 104-9.6 155.2-24 32 75.2 49.6 152 51.2 228.8H529.6z m304-334.4c-44.8 27.2-89.6 48-131.2 62.4C672 160 632 99.2 580.8 40c97.6 14.4 184 57.6 252.8 120M436.8 41.6c-11.2 12.8-22.4 27.2-35.2 46.4-24 32-54.4 80-80 136-48-16-92.8-38.4-132.8-60.8 67.2-64 153.6-107.2 248-121.6m-273.6 145.6c46.4 28.8 96 51.2 144 67.2-6.4 17.6-14.4 35.2-19.2 52.8-20.8 62.4-32 124.8-33.6 187.2H35.2c4.8-118.4 52.8-225.6 128-307.2m-128 342.4h219.2c1.6 33.6 4.8 68.8 11.2 102.4 9.6 46.4 24 91.2 43.2 136-49.6 17.6-97.6 40-145.6 68.8-76.8-81.6-123.2-188.8-128-307.2z m152 331.2c40-24 86.4-46.4 136-62.4 30.4 62.4 72 124.8 124.8 185.6-100.8-12.8-190.4-57.6-260.8-123.2M576 984c11.2-12.8 25.6-30.4 40-51.2 24-32 54.4-78.4 81.6-136 44.8 14.4 89.6 35.2 136 64-68.8 65.6-158.4 110.4-257.6 123.2m284.8-147.2c-48-30.4-97.6-52.8-147.2-70.4 8-17.6 14.4-35.2 20.8-52.8 20.8-60.8 32-121.6 35.2-184h219.2c-4.8 118.4-52.8 225.6-128 307.2" fill="" p-id="35902"></path></svg>