<svg t="1606357465543" class="icon" viewBox="0 0 1050 1024" version="1.1" xmlns="http://www.w3.org/2000/svg" p-id="28204" width="200" height="200"><path d="M332.17291 90.594122a37.444946 37.444946 0 0 1 37.444947 37.444946V332.17442A37.142971 37.142971 0 0 1 332.17291 370.223317H128.037558A37.444946 37.444946 0 0 1 90.592612 332.17442V128.039068A37.746922 37.746922 0 0 1 128.037558 90.594122H332.17291m0-90.592612H128.037558A128.037558 128.037558 0 0 0 0 128.039068V332.17442a128.037558 128.037558 0 0 0 128.037558 128.037558H332.17291A128.037558 128.037558 0 0 0 460.814419 332.17442V128.039068A128.037558 128.037558 0 0 0 332.17291 0.00151zM332.17291 653.778193a37.444946 37.444946 0 0 1 37.444947 37.444946v204.739303A37.142971 37.142971 0 0 1 332.17291 933.407388H128.037558A37.444946 37.444946 0 0 1 90.592612 895.962442v-204.739303a37.746922 37.746922 0 0 1 37.444946-37.444946H332.17291m0-90.592612H128.037558A128.037558 128.037558 0 0 0 0 691.223139v204.739303a128.037558 128.037558 0 0 0 128.037558 128.037558H332.17291a128.037558 128.037558 0 0 0 128.037559-128.037558v-204.739303A128.037558 128.037558 0 0 0 332.17291 563.185581zM1004.974042 147.667467h-422.765523a45.296306 45.296306 0 0 1 0-90.592612h422.765523a45.296306 45.296306 0 0 1 0 90.592612zM1004.974042 403.742584h-422.765523a45.296306 45.296306 0 0 1 0-90.592612h422.765523a45.296306 45.296306 0 0 1 0 90.592612zM1004.974042 715.079193h-422.765523a45.296306 45.296306 0 0 1 0-90.592612h422.765523a45.296306 45.296306 0 0 1 0 90.592612zM1004.974042 971.15431h-422.765523a45.296306 45.296306 0 0 1 0-90.592612h422.765523a45.296306 45.296306 0 0 1 0 90.592612z" p-id="28205"></path></svg>