<svg t="1606360119408" class="icon" viewBox="0 0 1024 1024" version="1.1" xmlns="http://www.w3.org/2000/svg" p-id="43826" width="200" height="200"><path d="M518.397715 0l6.580507 0.146233 6.580507 0.219351 6.580507 0.292467 6.580507 0.365583 6.434273 0.438701 6.507391 0.584934 6.434273 0.584934 6.434274 0.731167 6.434273 0.731168 6.361157 0.877401 6.361157 0.950517 6.361156 0.950518 6.28804 1.096751 6.28804 1.169868 6.28804 1.242985 6.214923 1.316101 6.214924 1.462335 6.214923 1.462335 6.141806 1.462335 6.06869 1.681685 6.06869 1.681685 6.06869 1.754802 6.068689 1.827918 5.995573 1.901036 5.922457 1.974152 5.922456 2.047269 5.84934 2.120385 5.922456 2.193503 5.849339 2.193502 5.776223 2.412852 5.776223 2.339736 5.703106 2.48597 5.703106 2.559086 5.629989 2.559086 5.629989 2.705319 5.556873 2.70532 5.556873 2.778436 5.483755 2.92467 5.483756 2.924669 5.410639 2.92467 5.337523 3.070903 5.337522 3.14402 5.337522 3.14402 5.264406 3.217137 5.118172 3.290254 5.191289 3.36337 5.118172 3.436487 5.118172 3.509604 5.118172 3.509603 4.898822 3.655837 4.971938 3.655838 4.898822 3.655837 4.898822 3.802071 4.752588 3.80207 4.825706 3.875188 4.679471 3.948304 4.679472 4.021421 4.606355 4.021421 4.606354 4.094537 4.460122 4.167655 4.533238 4.240771 4.387005 4.240771 4.387004 4.387005 4.313888 4.313888 4.240771 4.387004 4.240771 4.533238 4.167655 4.460122 4.094538 4.606355 4.02142 4.606355 4.021421 4.679471 3.948305 4.679472 3.875187 4.825705 3.802071 4.752588 3.80207 4.898822 3.655838 4.898822 3.655837 4.971939 3.655837 4.971938 3.509604 5.045055 3.509603 5.118173 3.436487 5.118172 3.363371 5.118172 3.290253 5.191289 3.217137 5.264405 3.14402 5.337522 3.14402 5.337523 3.070903 5.337522 2.92467 5.483756 2.92467 5.410639 2.924669 5.483756 2.778437 5.556872 2.705319 5.556873 2.70532 5.629989 2.559086 5.629989 2.559086 5.703106 2.485969 5.703106 2.339736 5.84934 2.339736 5.703106 2.266619 5.84934 2.193502 5.849339 2.120386 5.84934 2.047268 5.995573 1.974153 5.922456 1.901035 5.995573 1.827919 6.06869 1.754801 6.068689 1.681685 6.06869 1.681686 6.06869 1.462334 6.141806 1.462335 6.214924 1.462335 6.214923 1.316102 6.214923 1.242984 6.28804 1.169868 6.28804 1.023635 6.28804 1.023634 6.361157 0.950518 6.361156 0.877401 6.361157 0.731167 6.434274 0.731167 6.434273 0.584934 6.434274 0.584934 6.50739 0.438701 6.50739 0.365584 6.50739 0.292467 6.580507 0.21935 6.580507 0.073117 6.580507L1023.634416 511.817208v6.580507l-0.146233 6.580507-0.21935 6.580507-0.292467 6.580507-0.365584 6.580507-0.438701 6.434273-0.584934 6.507391-0.584934 6.434273-0.731167 6.434274-0.731167 6.434273-0.877401 6.361157-0.950518 6.361157-1.023634 6.361156-1.023635 6.28804-1.169868 6.28804-1.242984 6.28804-1.316102 6.214923-1.462335 6.214924-1.462335 6.214923-1.462334 6.141806-1.681686 6.06869-1.681685 6.06869-1.754801 6.06869-1.827919 6.068689-1.901035 5.995573-1.974153 5.922457-2.047268 5.922456-2.120386 5.84934-2.193502 5.922456-2.193503 5.849339-2.412852 5.776223-2.339736 5.776223-2.485969 5.703106-2.559086 5.703106-2.559086 5.629989-2.70532 5.629989-2.705319 5.556873-2.778437 5.556873-2.924669 5.483755-2.92467 5.483756-2.92467 5.410639-3.070903 5.337523-3.14402 5.337522-3.14402 5.337522-3.217137 5.264406-3.290253 5.118172-3.363371 5.191289-3.436487 5.118172-3.509603 5.118172-3.509604 5.118172-3.655837 4.898822-3.655837 4.971938-3.655838 4.898822-3.80207 4.898822-3.802071 4.752588-3.875187 4.825706-3.948305 4.679471-4.021421 4.679472-4.02142 4.606355-4.094538 4.606354-4.167655 4.460122-4.240771 4.533238-4.240771 4.387005-4.387004 4.387004-4.313888 4.313888-4.387005 4.240771-4.533238 4.240771-4.460122 4.167655-4.606354 4.094538-4.606355 4.02142-4.679472 4.021421-4.679471 3.948305-4.825706 3.875187-4.752588 3.802071-4.898822 3.80207-4.898822 3.655838-4.971938 3.655837-4.971939 3.655837-5.045055 3.509604-5.118172 3.509603-5.118172 3.436487-5.118172 3.363371-5.264406 3.290253-5.191289 3.217137-5.337522 3.14402-5.337522 3.14402-5.337523 3.070903-5.483756 2.92467-5.410639 2.92467-5.483755 2.924669-5.556873 2.778437-5.556873 2.705319-5.629989 2.70532-5.629989 2.559086-5.703106 2.559086-5.703106 2.485969-5.84934 2.339736-5.703106 2.339736-5.849339 2.266619-5.84934 2.193502-5.849339 2.120386-5.995573 2.047268-5.922457 1.974153-5.995573 1.901035-6.068689 1.827919-6.06869 1.754801-6.06869 1.681685-6.141806 1.681686-6.06869 1.462334-6.214923 1.462335-6.214924 1.462335-6.214923 1.316102-6.28804 1.242984-6.28804 1.169868-6.28804 1.023635-6.361156 1.023634-6.361157 0.950518-6.361157 0.877401-6.434273 0.731167-6.434274 0.731167-6.434273 0.584934-6.507391 0.584934-6.50739 0.438701-6.50739 0.365584-6.580507 0.292467-6.580507 0.21935-6.580507 0.073117L511.817208 1023.634416h-6.580507l-6.580507-0.146233-6.580507-0.21935-6.580507-0.292467-6.580507-0.365584-6.434273-0.438701-6.50739-0.584934-6.434274-0.584934-6.434273-0.731167-6.434274-0.731167-6.361157-0.877401-6.361156-0.950518-6.361157-1.023634-6.28804-1.023635-6.28804-1.169868-6.28804-1.242984-6.214923-1.316102-6.214923-1.462335-6.214924-1.462335-6.068689-1.462334-6.141807-1.681686-6.06869-1.681685-6.068689-1.754801-6.06869-1.827919-5.995573-1.901035-5.922456-1.974153-5.922457-2.047268-5.849339-2.120386-5.922456-2.193502-5.84934-2.193503-5.776223-2.412852-5.776223-2.339736-5.703106-2.485969-5.703106-2.559086-5.629989-2.559086-5.629989-2.70532-5.556873-2.705319-5.556872-2.778437-5.483756-2.924669-5.483756-2.92467-5.410639-2.92467-5.337522-3.070903-5.337523-3.14402-5.337522-3.14402-5.191289-3.217137-5.264405-3.290253-5.118172-3.363371-5.118172-3.436487-5.118173-3.509603-5.118172-3.509604-4.898821-3.655837-4.971939-3.655837-4.898822-3.655838-4.898822-3.80207-4.752588-3.802071-4.825705-3.875187-4.679472-3.948305-4.679471-4.021421-4.606355-4.02142-4.606355-4.094538-4.460122-4.167655-4.533238-4.240771-4.387004-4.240771-4.387005-4.387004-4.313888-4.313888-4.240771-4.387005-4.240771-4.533238-4.167655-4.460122-4.094537-4.606354-4.021421-4.606355-4.021421-4.679472-3.948304-4.679471-3.875188-4.825706-3.80207-4.752588-3.802071-4.898822-3.655837-4.898822-3.655838-4.971938-3.655837-4.971939-3.509603-5.045055-3.509604-5.118172-3.436487-5.118172-3.36337-5.118172-3.290254-5.264406-3.217137-5.191289-3.14402-5.337522-3.14402-5.337522-3.070903-5.337523-2.92467-5.483756-2.924669-5.410639-2.92467-5.483755-2.778436-5.556873-2.70532-5.556873-2.705319-5.629989L45.332381 722.393431l-2.559086-5.703106-2.412852-5.703106-2.412853-5.84934-2.339736-5.703106-2.266619-5.849339-2.193502-5.84934-2.120386-5.849339-2.047268-5.995573-1.974153-5.922457-1.901035-5.995573-1.827918-6.068689-1.754802-6.06869-1.681685-6.06869-1.608569-6.141806L14.623349 633.556587 13.161014 627.341664l-1.462335-6.214924-1.316101-6.214923-1.242985-6.28804-1.169868-6.28804-1.023634-6.28804-1.023635-6.361156-0.950517-6.361157-0.877401-6.361157-0.731168-6.434273-0.731167-6.434274-0.584934-6.434273-0.584934-6.507391-0.438701-6.50739L0.731167 538.139236l-0.292467-6.580507-0.21935-6.580507-0.073117-6.580507L0 511.817208v-6.580507l0.146233-6.580507 0.219351-6.580507 0.292467-6.580507 0.365583-6.580507 0.438701-6.434273 0.584934-6.50739 0.584934-6.434274 0.731167-6.434273 0.731168-6.434274 0.877401-6.361157 0.950517-6.361156 0.950518-6.361157 1.096751-6.28804 1.169868-6.28804 1.242985-6.28804 1.316101-6.214923 1.462335-6.214923 1.462335-6.214924 1.462335-6.068689 1.681685-6.141807 1.681685-6.06869 1.754802-6.068689 1.827918-6.06869 1.901036-5.995573 1.974152-5.922456 2.047269-5.922457 2.120385-5.849339 2.193503-5.922456 2.193502-5.84934 2.412852-5.776223 2.339736-5.776223 2.48597-5.703106 2.559086-5.703106 2.559086-5.629989 2.705319-5.629989 2.70532-5.556873 2.778436-5.556872 2.92467-5.483756 2.924669-5.483756 2.92467-5.410639 3.070903-5.337522 3.14402-5.337523 3.14402-5.337522 3.217137-5.191289 3.290254-5.264405 3.36337-5.118172 3.436487-5.118172 3.509604-5.118173 3.509603-5.118172 3.655837-4.898821 3.655838-4.971939 3.655837-4.898822 3.802071-4.898822 3.80207-4.752588 3.875188-4.825705 3.948304-4.679472 4.021421-4.679471 4.021421-4.606355 4.094537-4.606355 4.167655-4.460122 4.240771-4.533238 4.240771-4.387004 4.387005-4.387005 4.313888-4.313888 4.387004-4.240771 4.533238-4.240771 4.460122-4.167655 4.606355-4.094537 4.606355-4.021421 4.679471-4.021421 4.679472-3.948304 4.825705-3.875188 4.752588-3.80207 4.898822-3.802071 4.898822-3.655837 4.971939-3.655838 4.971938-3.655837 5.045055-3.509603 5.118173-3.509604 5.118172-3.436487 5.118172-3.36337 5.191289-3.290254 5.264405-3.217137 5.337522-3.14402 5.337523-3.14402 5.337522-3.070903 5.483756-2.92467 5.410639-2.924669 5.483756-2.92467 5.556872-2.778436 5.556873-2.70532 5.629989-2.705319L301.240985 45.332381l5.703106-2.559086 5.703106-2.412852 5.84934-2.412853 5.703106-2.339736 5.84934-2.266619 5.849339-2.193502 5.84934-2.120386 5.995573-2.047268 5.922456-1.974153 5.995573-1.901035 6.06869-1.827918 6.068689-1.754802 6.06869-1.681685L383.862906 16.085684 390.077829 14.623349 396.292753 13.161014l6.214923-1.462335 6.214923-1.316101 6.28804-1.242985 6.28804-1.169868 6.28804-1.023634 6.361157-1.023635 6.361156-0.950517 6.361157-0.877401 6.434274-0.731168 6.434273-0.731167 6.434274-0.584934 6.50739-0.584934 6.50739-0.438701L485.49518 0.731167l6.580507-0.292467 6.580507-0.21935 6.580507-0.073117L511.817208 0h6.580507z m-12.283613 73.116744l-5.629989 0.146234-5.629989 0.146233-5.62999 0.292467-5.629989 0.292467-5.556873 0.4387-5.556872 0.438701-5.556873 0.511817-5.556872 0.584934-5.483756 0.731167-5.483756 0.731168-5.410639 0.731167-5.483756 0.877401-5.337522 0.950518-5.410639 0.950518-5.337522 1.096751-5.337523 1.096751-5.337522 1.242985-5.264406 1.242984-5.264405 1.316102-5.264406 1.389218-5.191289 1.462335-5.118172 1.462335-5.191288 1.608568-5.118173 1.608568-5.118172 1.681685-5.118172 1.754802-5.045055 1.827919-4.971939 1.901035-5.045055 1.901036-4.898822 1.974152-4.971938 2.047268-4.898822 2.193503-4.898822 2.120385-4.825705 2.193503-4.752589 2.266619-4.825705 2.339736-4.752588 2.412852-4.679472 2.485969-4.679471 2.48597-4.679472 2.559086-4.533238 2.632203-4.606355 2.632202-4.533238 2.778437-4.533238 2.778436-4.387005 2.778436-4.460121 2.92467-4.387005 2.92467-4.387004 2.924669-4.387005 3.070904-4.240771 3.070903-4.240771 3.14402-4.240772 3.217137-4.167654 3.217136-4.094538 3.290254-4.094537 3.36337-4.021421 3.36337-4.021421 3.436487-3.948304 3.436487-3.948304 3.509604-3.875188 3.655837-3.802071 3.582721-3.875187 3.655837-3.655837 3.655837-3.728954 3.728954-3.655837 3.802071-3.655838 3.875187-3.58272 3.875188-3.509604 3.875187-3.436487 4.021421-3.436487 4.021421-3.36337 4.021421-3.36337 4.094537-3.290254 4.094538-3.217136 4.167654-3.217137 4.240772-3.14402 4.240771-3.070903 4.313888-2.997787 4.313888-2.997786 4.387004-2.92467 4.387005-2.92467 4.387004-2.778436 4.460122-2.778436 4.533238-2.778437 4.533238-2.632202 4.606355-2.632203 4.606355-2.559086 4.606355-2.48597 4.679471-2.485969 4.679472-2.412852 4.825705-2.339736 4.752588-2.193503 4.752589-2.266619 4.898822-2.193502 4.825705-2.120386 4.898822-2.047268 4.898821-1.974152 5.045056-1.901036 4.971938-1.901035 4.971939-1.827919 5.118172-1.754802 5.045055-1.681685 5.118172-1.608568 5.118173-1.608568 5.118172-1.462335 5.191288-1.462335 5.191289-1.389218 5.264406-1.316102 5.264405-1.242984 5.264406-1.169868 5.337522-1.169868 5.337523-1.096751 5.337522-0.950518 5.410639-0.950518 5.410639-0.877401 5.410639-0.731167 5.410639-0.731168 5.483756-0.731167 5.483756-0.584934 5.483756-0.511817 5.629989-0.438701 5.556872-0.4387 5.556873-0.292467 5.629989-0.292467 5.62999-0.146233 5.629989L73.116744 506.187219v11.259978l0.146234 5.703106 0.146233 5.62999 0.292467 5.629989 0.292467 5.629989 0.4387 5.556873 0.438701 5.556872 0.511817 5.62999 0.584934 5.410639 0.731167 5.556872 0.731168 5.483756 0.731167 5.410639 0.877401 5.483756 0.950518 5.410639 0.950518 5.337522 1.096751 5.337523 1.096751 5.410639 1.242985 5.264405 1.242984 5.264406 1.316102 5.264405 1.389218 5.264406 1.462335 5.118172 1.462335 5.264406 1.608568 5.118172 1.608568 5.118172 1.681685 5.118172 1.754802 5.118172 1.827919 5.045055 1.901035 4.971939 1.901036 4.971938 1.974152 5.045056 2.047268 4.898822 2.193503 4.898822 2.120385 4.825705 2.193503 4.898821 2.266619 4.752589 2.339736 4.825705 2.412852 4.752588 2.485969 4.679472 2.48597 4.679472 2.559086 4.606354 2.632203 4.606355 2.632202 4.606355 2.778437 4.533238 2.778436 4.533238 2.778436 4.387005 2.92467 4.533238 2.92467 4.387005 2.924669 4.387004 3.070904 4.240772 3.070903 4.313888 3.14402 4.240771 3.217137 4.240771 3.217136 4.167654 3.290254 4.094538 3.36337 4.094538 3.36337 4.02142 3.436487 4.021421 3.436487 4.021421 3.509604 3.875188 3.58272 3.875187 3.655838 3.875188 3.655837 3.80207 3.655837 3.655838 3.728954 3.728953 3.875187 3.655838 3.802071 3.655837 3.875188 3.58272 3.948304 3.509604 3.948304 3.436487 4.021421 3.436487 4.021421 3.36337 4.094537 3.36337 4.094538 3.290254 4.167654 3.217137 4.240772 3.217136 4.240771 3.14402 4.313888 3.070904 4.240771 2.997786 4.387004 2.997787 4.387005 2.924669 4.460121 2.92467 4.460122 2.778436 4.533238 2.778437 4.533238 2.778436 4.606355 2.632203 4.606355 2.632203 4.606355 2.559086 4.679471 2.485969 4.679472 2.485969 4.752588 2.412853 4.825705 2.266619 4.752589 2.339736 4.825705 2.193502 4.898822 2.193502 4.898822 2.120386 4.898821 2.047269 5.045056 1.974152 4.971938 1.901035 4.971939 1.901035 5.118172 1.827919 5.045055 1.754802 5.118172 1.681685 5.118173 1.608568 5.118172 1.608569 5.191288 1.462335 5.191289 1.462335 5.264406 1.389218 5.264405 1.316101 5.264406 1.242985 5.337522 1.242984 5.337523 1.096751 5.337522 1.023635 5.410639 1.023634 5.410639 0.950518 5.410639 0.877401 5.410639 0.731167 5.483756 0.731168 5.483756 0.731167 5.556872 0.584934 5.556873 0.511817 5.556872 0.438701 5.556873 0.4387 5.629989 0.292467 5.62999 0.292467 5.629989 0.146234 5.629989 0.146233h11.406212l5.629989-0.146233 5.62999-0.146234 5.629989-0.292467 5.629989-0.292467 5.556873-0.4387 5.556872-0.438701 5.556873-0.511817 5.556873-0.584934 5.483755-0.731167 5.483756-0.731168 5.410639-0.731167 5.410639-0.877401 5.410639-0.950518 5.410639-1.023634 5.337523-1.023635 5.337522-1.096751 5.337522-1.242984 5.264406-1.242985 5.264405-1.316101 5.264406-1.389218 5.118172-1.462335 5.264406-1.462335 5.118172-1.608569 5.118172-1.608568 5.118172-1.681685 5.118172-1.754802 5.045055-1.827919 4.971939-1.901035 5.045055-1.901035 4.971939-1.974152 4.898822-2.047269 4.898822-2.193502 4.825705-2.120386 4.898821-2.193502 4.752589-2.266619 4.825705-2.412853 4.752588-2.339736 4.679472-2.485969 4.679472-2.485969 4.606354-2.559086 4.679472-2.632203 4.533238-2.632203 4.533238-2.778436 4.533238-2.778437 4.387005-2.778436 4.460121-2.92467 4.387005-2.924669 4.387005-2.92467 4.387004-3.070903 4.240772-3.070904 4.240771-3.14402 4.240771-3.217136 4.167654-3.217137 4.094538-3.290254 4.094538-3.36337 4.02142-3.36337 4.021421-3.36337 3.948305-3.509604 3.948304-3.509604 3.875187-3.655837 3.875188-3.58272 3.80207-3.655838 3.655838-3.655837 3.728953-3.80207 3.655838-3.728954 3.655837-3.875188 3.58272-3.875187 3.509604-3.948304 3.436487-3.948305 3.436487-4.021421 3.36337-4.02142 3.36337-4.094538 3.290254-4.094538 3.217137-4.240771 3.217136-4.167654 3.14402-4.240771 3.070904-4.313888 2.997786-4.313888 2.997787-4.387005 2.924669-4.387005 2.92467-4.387004 2.851553-4.460122 2.70532-4.533238 2.778436-4.533238 2.632203-4.606355 2.632203-4.606355 2.559086-4.606354 2.485969-4.679472 2.485969-4.752588 2.339736-4.679472 2.412853-4.825705 2.193502-4.825705 2.266619-4.752589 2.193502-4.898821 2.120386-4.898822 2.047269-4.971939 1.974152-4.971939 1.901035-4.971938 1.901035-4.971939 1.827919-5.118172 1.754802-5.045055 1.681685-5.118172 1.608568-5.118172 1.608569-5.118172 1.462335-5.118172 1.462335-5.337523 1.462334-5.191289 1.242985-5.264405 1.242985-5.264406 1.242984-5.337522 1.096751-5.337522 1.023635-5.337523 1.023634-5.337522 0.950518-5.483756 0.877401-5.410639 0.731167-5.410639 0.731168-5.483756 0.731167-5.483755 0.584934-5.556873 0.511817-5.556873 0.438701-5.556872 0.4387-5.556873 0.292467-5.629989 0.292467-5.629989 0.146234-5.62999 0.146233-5.629989v-11.406212l-0.146233-5.629989-0.146234-5.629989-0.292467-5.62999-0.292467-5.629989-0.365583-5.556873-0.511818-5.556872-0.511817-5.556873-0.584934-5.483755-0.731167-5.556873-0.731168-5.483756-0.731167-5.410639-0.877401-5.483756-0.950518-5.410639-1.023634-5.337522-1.023635-5.337522-1.096751-5.337523-1.242984-5.337522-1.242985-5.264406-1.316101-5.264405-1.389218-5.264406-1.462335-5.191289-1.462335-5.118172-1.608569-5.191288-1.608568-5.118173-1.681685-5.118172-1.754802-5.118172-1.827919-5.045055-1.901035-4.971939-1.901035-5.045055-1.974152-4.898822-2.047269-4.971938-2.193502-4.898822-2.120386-4.898822-2.193502-4.752588-2.266619-4.825706-2.412853-4.825705-2.339736-4.679471-2.485969-4.752589-2.485969-4.679471-2.559086-4.606355-2.632203-4.606355-2.632203-4.606355-2.778436-4.533238-2.70532-4.533238-2.92467-4.387005-2.851553-4.533238-2.924669-4.387005-2.92467-4.387004-3.070903-4.240771-3.070904-4.313888-3.14402-4.240771-3.14402-4.167655-3.290253-4.240771-3.290254-4.094538-3.36337-4.094537-3.36337-4.021421-3.436487-4.021421-3.436487-3.948304-3.509604-3.948304-3.655837-3.875188-3.58272-3.875187-3.655838-3.802071-3.655837-3.655837-3.80207-3.728954-3.728954-3.655837-3.875188-3.655838-3.875187-3.58272-3.948304-3.509604-3.948305-3.509603-4.021421-3.363371-4.02142-3.36337-4.094538-3.36337-4.094538-3.290254-4.167654-3.217136-4.240771-3.217137-4.240771-3.14402-4.313888-3.070903-4.313888-2.997787-4.387005-2.997786-4.387005-2.92467-4.387004-2.92467-4.460122-2.778436-4.533238-2.778436-4.533238-2.778437-4.606355-2.632202-4.606355-2.632203-4.606354-2.559086-4.679472-2.48597-4.679472-2.485969-4.752588-2.339736-4.825705-2.412852-4.752589-2.193503-4.898821-2.266619-4.825705-2.193502-4.898822-2.120386-4.898822-2.047268-4.971939-1.974152-5.045055-1.901036-4.971939-1.901035-5.118172-1.827919-5.045055-1.754802-5.118172-1.681685-5.118172-1.608568-5.118172-1.608568-5.191289-1.462335-5.191289-1.462335-5.264406-1.389218-5.264405-1.316102-5.264406-1.242984-5.337522-1.242985-5.337522-1.096751-5.337523-1.096751-5.410639-0.950518-5.410639-0.950518-5.410639-0.877401-5.410639-0.731167-5.483756-0.731168-5.483755-0.731167-5.556873-0.584934-5.556873-0.511817-5.556872-0.438701-5.556873-0.4387-5.629989-0.292467-5.629989-0.292467-5.62999-0.146233L517.520314 73.116744h-11.406212zM511.817208 511.817208h365.58372c0 201.802213-163.781507 365.58372-365.58372 365.58372S146.233488 713.619422 146.233488 511.817208s163.781507-365.58372 365.58372-365.58372v365.58372z" p-id="43827"></path></svg>