<svg t="1606360038416" class="icon" viewBox="0 0 1280 1024" version="1.1" xmlns="http://www.w3.org/2000/svg" p-id="42761" width="200" height="200"><path d="M1234.688 48.042667h-1109.333333a42.666667 42.666667 0 0 0-42.666667 42.666666v853.333334a42.666667 42.666667 0 0 0 42.666667 42.666666h1109.333333a42.666667 42.666667 0 0 0 42.666667-42.666666v-853.333334a42.666667 42.666667 0 0 0-42.666667-42.666666z m-41.813333 856.064H170.837333V133.376H1192.96v770.730667zM317.952 780.970667L547.84 550.912l152.576 152.746667a10.666667 10.666667 0 0 0 15.018667 0l396.032-396.288a10.666667 10.666667 0 0 0 0-15.104l-49.066667-49.066667a10.666667 10.666667 0 0 0-15.104 0L708.010667 582.656 555.434667 430.08a10.666667 10.666667 0 0 0-15.018667 0L253.866667 716.8a10.666667 10.666667 0 0 0 0 15.018667l48.896 49.237333a10.666667 10.666667 0 0 0 15.104 0z" p-id="42762"></path></svg>