<svg t="1606360000729" class="icon" viewBox="0 0 1024 1024" version="1.1" xmlns="http://www.w3.org/2000/svg" p-id="41977" width="200" height="200"><path d="M288 512v288a32 32 0 0 0 64 0V512a32 32 0 0 0-64 0zM128 240h80v80a32 32 0 0 0 64 0v-80h80a32 32 0 0 0 0-64h-80V96a32 32 0 0 0-64 0v80H128a32 32 0 0 0 0 64zM544 800V384a32 32 0 0 0-64 0v416a32 32 0 0 0 64 0zM736 800V320a32 32 0 0 0-64 0v480a32 32 0 0 0 64 0z" p-id="41978"></path><path d="M864 64H480a32 32 0 0 0 0 64h384c17.664 0 32 14.352 32 32v704a32 32 0 0 1-32 32H160a32 32 0 0 1-32-32V432a32 32 0 0 0-64 0v432c0 53.008 43.008 96 96 96h704c53.008 0 96-43.008 96-96V160a96 96 0 0 0-96-96z" p-id="41979"></path></svg>