<svg t="1606987427806" class="icon" viewBox="0 0 1024 1024" version="1.1" xmlns="http://www.w3.org/2000/svg" p-id="17224" width="200" height="200"><path d="M509.491207 291.840594H260.608679v71.679807h248.882528zM260.608679 578.55982h497.816256V506.880014H260.608679z m0 215.03942h497.816256v-71.679807H260.608679zM947.608424 235.520746L708.607469 10.241355a37.375899 37.375899 0 0 0-19.865546-10.239973H96.257123A34.508707 34.508707 0 0 0 61.441217 34.20289V988.158714a34.508707 34.508707 0 0 0 33.17751 35.839904H927.742877a34.508707 34.508707 0 0 0 34.815906-34.201508V261.120677a112.639696 112.639696 0 0 1-14.950359-25.599931z m-243.967341-138.239626l179.199516 174.07953h-179.199516V97.28112z m184.319502 855.037691H131.073029V71.681189h502.885042v235.519364a34.508707 34.508707 0 0 0 33.17751 35.839903h225.79139v609.278355h-5.119986z" p-id="17225"></path></svg>