<svg t="1606985962980" class="icon" viewBox="0 0 1024 1024" version="1.1" xmlns="http://www.w3.org/2000/svg" p-id="8231" width="200" height="200"><path d="M427.446857 518.631619c-91.867429-34.694095-158.086095-123.952762-158.086095-227.230476C269.360762 158.47619 379.075048 48.761905 512 48.761905s242.639238 109.714286 242.639238 242.639238c0 105.837714-69.534476 196.973714-164.985905 229.717333 35.961905 6.192762 72.533333 16.067048 109.129143 31.061334 22.016 9.020952 29.379048 14.823619 41.959619 21.162666 121.709714 69.802667 205.653333 190.366476 232.911238 332.092953 4.217905 16.920381 0 33.840762-12.580571 48.64-10.48381 12.702476-27.282286 21.162667-44.056381 21.162666H104.935619c-16.798476 0-33.572571-8.46019-44.080762-21.162666-10.48381-14.799238-14.677333-31.695238-10.483809-48.64 38.66819-198.753524 189.513143-350.841905 377.075809-386.80381z" p-id="8232"></path></svg>