<svg t="1606987740876" class="icon" viewBox="0 0 1024 1024" version="1.1" xmlns="http://www.w3.org/2000/svg" p-id="18890" width="200" height="200"><path d="M724.48 87.04c-56.832 0-110.08 22.016-150.016 62.464L414.72 308.736c-39.936 39.936-62.464 93.696-62.464 150.016 0 72.704 36.864 139.264 97.792 178.688 9.216 6.144 19.968 7.68 30.208 5.12 9.728-2.048 18.944-8.192 25.088-17.408 6.144-9.216 7.68-19.968 5.12-30.208-2.048-9.728-8.192-18.944-17.408-25.088-38.4-24.576-61.44-66.56-61.44-111.616 0-35.328 13.824-68.608 38.912-93.696L629.76 205.312c25.088-25.088 58.368-38.912 93.696-38.912 73.216 0 132.608 59.392 132.608 132.608 0 35.328-13.824 68.608-38.912 93.696l-75.776 75.776c-8.192 8.192-11.776 18.432-11.776 28.672 0 9.728 4.096 19.968 11.776 27.648s17.92 11.776 28.16 11.776 20.48-4.096 28.16-11.776l75.776-75.776c41.472-39.424 63.488-92.672 63.488-149.504 0-117.248-95.232-212.48-212.48-212.48" p-id="18891"></path><path d="M573.44 386.048c-9.216-6.144-19.968-7.68-30.208-5.12-9.728 2.048-18.944 8.192-25.088 17.408-6.144 9.216-7.68 19.968-5.12 30.208 2.048 9.728 8.192 18.944 17.408 25.088 38.4 24.576 61.44 66.56 61.44 111.616 0 35.328-13.824 68.608-38.912 93.696L393.728 818.176c-25.088 25.088-58.368 38.912-93.696 38.912-73.216 0-132.608-59.392-132.608-132.608 0-35.328 13.824-68.608 38.912-93.696l75.776-75.776c8.192-8.192 11.776-18.432 11.776-28.672 0-9.728-4.096-19.968-11.776-27.648s-17.92-11.776-28.16-11.776-20.48 4.096-28.16 11.776l-75.776 75.776C109.056 614.4 87.04 667.648 87.04 724.48c0 117.248 95.232 212.48 212.48 212.48 56.832 0 110.08-22.016 150.016-62.464l159.232-159.232c39.936-39.936 62.464-93.696 62.464-150.016 0-72.704-36.352-139.776-97.792-179.2" p-id="18892"></path></svg>