<svg t="1606987535491" class="icon" viewBox="0 0 1024 1024" version="1.1" xmlns="http://www.w3.org/2000/svg" p-id="17365" width="200" height="200"><path d="M949.629687 342.163917 799.273261 492.486574c-33.189913 33.223682-87.054705 33.223682-120.277364 0L528.674263 342.163917c-33.221636-33.222659-33.221636-87.083357 0-120.262014L678.995897 71.535243c33.222659-33.221636 87.087451-33.221636 120.277364 0l150.356426 150.365636C982.84723 255.080559 982.84723 308.941258 949.629687 342.163917L949.629687 342.163917zM923.527193 231.748155 789.444405 97.645924c-27.800159-27.734668-72.821539-27.734668-100.588953 0L554.770618 231.748155c-27.767414 27.734668-27.767414 72.786747 0 100.556207L688.854429 466.3718c27.767414 27.783787 72.788793 27.783787 100.588953 0l134.082788-134.068462C951.294606 304.534901 951.294606 259.536035 923.527193 231.748155L923.527193 231.748155zM377.69669 941.151084 165.073104 941.151084c-46.987151 0-85.064374-38.077224-85.064374-85.042885L80.00873 643.47745c0-46.953382 38.0762-85.042885 85.064374-85.042885l212.622562 0c46.952358 0 85.029582 38.09155 85.029582 85.042885l0 212.629725C462.725248 903.07386 424.649048 941.151084 377.69669 941.151084L377.69669 941.151084zM377.69669 473.384517 165.073104 473.384517c-46.987151 0-85.064374-38.077224-85.064374-85.042885L80.00873 175.730327c0-46.982034 38.0762-85.063351 85.064374-85.063351l212.622562 0c46.952358 0 85.029582 38.081317 85.029582 85.063351l0 212.610282C462.725248 435.307294 424.649048 473.384517 377.69669 473.384517L377.69669 473.384517zM632.824321 558.433542l212.624609 0c46.981011 0 85.059258 38.09155 85.059258 85.042885l0 212.629725c0 46.965661-38.078247 85.042885-85.059258 85.042885L632.824321 941.149037c-46.957475 0-85.033675-38.077224-85.033675-85.042885L547.790646 643.47745C547.790646 596.524069 585.866846 558.433542 632.824321 558.433542L632.824321 558.433542z" p-id="17366" fill="#707070"></path></svg>